<svg width="1300" height="920" viewBox="0 0 1300 920" xmlns="http://www.w3.org/2000/svg" role="img">
<title>Kanto Region Map — v10 (v9 terrain + directional drop-shadows; central lake, Cycling Road lagoon and a new southern estuary merged into one bay open to the sea, Route 18 bridging its mouth)</title>
<desc>Custom-drawn, non-copyrighted Kanto region map: landscape 1300x920, strict orthogonal route lines, stacked two-line node labels, toy-map visual style matching style_referene2.png; route connectivity per official_layout_kanto.png; terrain layout traced from reference_kanto4.png and adapted to the locked v8 node/route positions; v11 removes the land spit west of the estuary and joins the Nugget/Power Plant rivers; v10 adds a soft upper-left-light shadow pass (offset silhouettes + feGaussianBlur) and opens the central lake to the southern sea via the Cycling Road lagoon and an estuary west of Fuchsia (reference_kanto2/3).</desc>
<defs>
<style>
  .haloL{fill:#d8f0a0;opacity:.55}
  .coastL{fill:#c98a52}
  .land{fill:#a3d968}
  .mtn{fill:#a9855f}
  .mtnHi{fill:#c9a878}
  .snow{fill:#eef3f6}
  .pine{fill:#3f8a4a}
  .pineHi{fill:#57ad63}
  .routeW{fill:none;stroke:#ffffff;stroke-width:17;stroke-linecap:round;stroke-linejoin:round}
  .routeO{fill:none;stroke:#ff9838;stroke-width:11;stroke-linecap:round;stroke-linejoin:round}
  .routeHi{fill:none;stroke:#ffc27a;stroke-width:3.5;stroke-linecap:round;stroke-linejoin:round}
  .seaW{fill:none;stroke:#ffffff;stroke-width:10;stroke-linecap:round;stroke-dasharray:2 12}
  .sea{fill:none;stroke:#4fc3e0;stroke-width:5.5;stroke-linecap:round;stroke-dasharray:2 12}
  .caveW{fill:none;stroke:#ffffff;stroke-width:10;stroke-linecap:round;stroke-dasharray:1 10}
  .cave{fill:none;stroke:#8a6a4a;stroke-width:5.5;stroke-linecap:round;stroke-dasharray:1 10}
  .deck{fill:none;stroke:#9ba3ab;stroke-width:14;stroke-linecap:round}
  .badge{fill:#fff;stroke:#ff9838;stroke-width:3}
  .badgetxt{font-size:10.5px;font-weight:700;fill:#7a4a1e;text-anchor:middle;dominant-baseline:central}
  .city{fill:#f2685c;stroke:#fff;stroke-width:4.5}
  .town{fill:#5c7bd6;stroke:#fff;stroke-width:4.5}
  .landmark{fill:#4caf6e;stroke:#fff;stroke-width:4.5}
  .special{fill:#8b6bc7;stroke:#fff;stroke-width:4.5}
  .nodetxt{font-size:11.5px;font-weight:700;fill:#fff;text-anchor:middle;paint-order:stroke fill;stroke:#00000055;stroke-width:2.5}
  .trunk{fill:#8a5a3a}
  .wall{fill:#f7ecd6;stroke:#00000022;stroke-width:.8}
  .door{fill:#8a5a3a}
  .roofR{fill:#e0574f}.roofB{fill:#4f6fd0}.roofG{fill:#7b8a99}
  .cloud{fill:#ffffff}
  .cloudSh{fill:#1aa6b3;opacity:.45}
  .shimmer{fill:none;stroke:#ffffff;stroke-width:2;stroke-linecap:round;opacity:.42}
  .lake{fill:#2fc3c9}
  .lakeRim{fill:#8cdcb2}
  .bayCoast{fill:#c98a52;stroke:#c98a52;stroke-width:24;stroke-linejoin:round}
  .bayHalo{fill:#8cdcb2;stroke:#8cdcb2;stroke-width:16;stroke-linejoin:round}
  .bayWater{fill:#2fc3c9}
  .halo{fill:none;stroke:#8cdcb2;stroke-width:24;stroke-linejoin:round}
  .coast{fill:none;stroke:#c98a52;stroke-width:8;stroke-linejoin:round}
  .river{fill:none;stroke:#26a9b4;stroke-width:7;stroke-linecap:round;stroke-linejoin:round}
  .riverRim{fill:none;stroke:#8cdcb2;stroke-width:11;stroke-linecap:round;stroke-linejoin:round}
  .marsh{fill:#6fae52;stroke:#3f8a3a;stroke-width:4;stroke-linejoin:round}
  .forest{fill:#79b85a;stroke:#3f8a3a;stroke-width:4;stroke-linejoin:round}
  .clearing{fill:#4f9a44}
  .trail{fill:none;stroke:#ffffff;stroke-width:2;stroke-linecap:round;stroke-dasharray:1.5 4.5;opacity:.9}
  .reed{fill:none;stroke:#2f6f30;stroke-width:1.4;stroke-linecap:round}
  .tuft{fill:none;stroke:#7cc850;stroke-width:1.6;stroke-linecap:round}
  .mtnT{fill:#62b25e}
  .mtnTHi{fill:#9ad98b}
  .hill{fill:#8fd06f}
  .hillHi{fill:#b0e08c}
  .cliff{fill:#c4e87e}
  .sand{fill:#ecd27f}
  .sandbar{fill:#e8d27f;stroke:#c9ad55;stroke-width:1}
  .rock{fill:#7d6b4f}
  .pier{fill:#e9cf6e;stroke:#c9a84a;stroke-width:1}
  .fall{fill:none;stroke:#ffffff;stroke-width:2.5;stroke-linecap:round;opacity:.85}
  .rockPlat{fill:#b0ab9b;stroke:#7f7a6c;stroke-width:2}
  .palmTrunk{fill:none;stroke:#8a5a3a;stroke-width:2;stroke-linecap:round}
  .palmLeaf{fill:none;stroke:#3f8a4a;stroke-width:2.2;stroke-linecap:round}
  .sh{fill:#0c3a2f;opacity:.24}
  .shW{fill:#0a4a58;opacity:.30}
  .bridge{fill:none;stroke:#9ba3ab;stroke-width:25;stroke-linecap:round}
</style>
<filter id="blurS" x="-10%" y="-10%" width="125%" height="125%"><feGaussianBlur stdDeviation="2.5"/></filter>
<filter id="blurL" x="-5%" y="-5%" width="110%" height="110%"><feGaussianBlur stdDeviation="5"/></filter>
</defs>
<rect x="0" y="0" width="1300" height="920" fill="#2fc3c9"/>
<!-- water shimmer -->
<g><path class="shimmer" d="M15.4,3.7 h11"/><path class="shimmer" d="M64.8,1.4 h26"/><path class="shimmer" d="M128.7,0.4 h26"/><path class="shimmer" d="M166.5,6.6 h18"/><path class="shimmer" d="M230.7,-5.4 h21"/><path class="shimmer" d="M380.5,0.9 h24"/><path class="shimmer" d="M506.8,5.2 h9"/><path class="shimmer" d="M562.5,-3.9 h18"/><path class="shimmer" d="M601.6,2 h12"/><path class="shimmer" d="M673.1,4.3 h16"/><path class="shimmer" d="M727.4,3.7 h9"/><path class="shimmer" d="M776,12.5 h19"/><path class="shimmer" d="M838.5,14.7 h16"/><path class="shimmer" d="M899.4,3.4 h15"/><path class="shimmer" d="M1008.3,3.1 h13"/><path class="shimmer" d="M1055.3,17.3 h18"/><path class="shimmer" d="M1094.8,13 h11"/><path class="shimmer" d="M1166.9,14.4 h18"/><path class="shimmer" d="M1215.3,11.5 h18"/><path class="shimmer" d="M1258.7,9.3 h18"/><path class="shimmer" d="M1028.7,57.8 h23"/><path class="shimmer" d="M1071.5,60.2 h16"/><path class="shimmer" d="M1130.3,73.9 h20"/><path class="shimmer" d="M10.8,129.9 h13"/><path class="shimmer" d="M1059.9,115.2 h21"/><path class="shimmer" d="M1097.2,128.1 h13"/><path class="shimmer" d="M1167.8,130.8 h25"/><path class="shimmer" d="M1258.1,107.7 h22"/><path class="shimmer" d="M1299.7,177.3 h12"/><path class="shimmer" d="M6.6,226.2 h26"/><path class="shimmer" d="M1265.5,235.4 h13"/><path class="shimmer" d="M1285,288.4 h12"/><path class="shimmer" d="M6.5,333.2 h11"/><path class="shimmer" d="M1169.7,350.7 h21"/><path class="shimmer" d="M1265.5,329.3 h12"/><path class="shimmer" d="M1135.2,401 h10"/><path class="shimmer" d="M1196.3,393.8 h19"/><path class="shimmer" d="M1241.7,390.1 h12"/><path class="shimmer" d="M1293.1,394.3 h22"/><path class="shimmer" d="M4.1,444.6 h9"/><path class="shimmer" d="M1153.7,442.2 h8"/><path class="shimmer" d="M1203.4,443.5 h9"/><path class="shimmer" d="M1258.8,452.2 h16"/><path class="shimmer" d="M521.1,493.2 h9"/><path class="shimmer" d="M452,520 h14"/><path class="shimmer" d="M470,604 h10"/><path class="shimmer" d="M488,742 h16"/><path class="shimmer" d="M498,797 h9"/><path class="shimmer" d="M462,660 h12"/><path class="shimmer" d="M579.3,499.1 h21"/><path class="shimmer" d="M649.9,516.1 h13"/><path class="shimmer" d="M683.5,508.8 h19"/><path class="shimmer" d="M1123,500.9 h18"/><path class="shimmer" d="M1185.6,513.4 h25"/><path class="shimmer" d="M1245.9,509.3 h13"/><path class="shimmer" d="M1293.5,496.7 h11"/><path class="shimmer" d="M-5.9,550.1 h10"/><path class="shimmer" d="M544.7,560.3 h15"/><path class="shimmer" d="M603.1,555.3 h10"/><path class="shimmer" d="M677.1,546.8 h8"/><path class="shimmer" d="M714.7,548.1 h21"/><path class="shimmer" d="M1262.3,554.6 h19"/><path class="shimmer" d="M131.9,603.4 h23"/><path class="shimmer" d="M1135.4,604.9 h24"/><path class="shimmer" d="M1196.8,620.1 h25"/><path class="shimmer" d="M1232.8,605.3 h15"/><path class="shimmer" d="M1301.8,623.5 h19"/><path class="shimmer" d="M14,657.6 h11"/><path class="shimmer" d="M67.4,671.4 h11"/><path class="shimmer" d="M104.8,680.4 h8"/><path class="shimmer" d="M160.8,675 h25"/><path class="shimmer" d="M768.2,665 h10"/><path class="shimmer" d="M1169.5,675.8 h23"/><path class="shimmer" d="M1223.2,667.8 h23"/><path class="shimmer" d="M1273.7,662.7 h12"/><path class="shimmer" d="M28.6,729.5 h14"/><path class="shimmer" d="M77.9,733.6 h9"/><path class="shimmer" d="M139.1,719.3 h13"/><path class="shimmer" d="M191.7,716.6 h11"/><path class="shimmer" d="M1137.9,732.5 h12"/><path class="shimmer" d="M1176,722.7 h25"/><path class="shimmer" d="M1248.8,726.3 h11"/><path class="shimmer" d="M1308.1,719.3 h20"/><path class="shimmer" d="M5.6,780.4 h22"/><path class="shimmer" d="M64.9,782.2 h11"/><path class="shimmer" d="M112.4,788.3 h9"/><path class="shimmer" d="M287.9,788.8 h21"/><path class="shimmer" d="M333,787 h9"/><path class="shimmer" d="M993.7,790.5 h13"/><path class="shimmer" d="M1053.5,768.6 h9"/><path class="shimmer" d="M1100.4,791.4 h17"/><path class="shimmer" d="M1172.1,766.2 h9"/><path class="shimmer" d="M1210.4,769.3 h26"/><path class="shimmer" d="M1276,790.3 h12"/><path class="shimmer" d="M41,842.8 h13"/><path class="shimmer" d="M85.2,843.3 h22"/><path class="shimmer" d="M145.1,828.7 h10"/><path class="shimmer" d="M526.2,824.4 h23"/><path class="shimmer" d="M651.3,841.3 h23"/><path class="shimmer" d="M757.6,843.5 h13"/><path class="shimmer" d="M793.5,827.4 h24"/><path class="shimmer" d="M845.7,833.4 h19"/><path class="shimmer" d="M915.1,820.6 h13"/><path class="shimmer" d="M972,826.8 h17"/><path class="shimmer" d="M1022.9,840.9 h19"/><path class="shimmer" d="M1296,825.5 h16"/><path class="shimmer" d="M-4.4,898.3 h24"/><path class="shimmer" d="M120.2,899.9 h21"/><path class="shimmer" d="M176.9,894.1 h23"/><path class="shimmer" d="M509.5,897.9 h21"/><path class="shimmer" d="M546,897.8 h18"/><path class="shimmer" d="M617.2,886.5 h9"/><path class="shimmer" d="M660.4,897.1 h18"/><path class="shimmer" d="M787.4,897.9 h19"/><path class="shimmer" d="M840.1,875.2 h25"/><path class="shimmer" d="M888,899 h24"/><path class="shimmer" d="M1009,885.7 h23"/><path class="shimmer" d="M1056.7,878.2 h19"/>
</g>
<!-- landmass: halo / coast / land, then inland water and islands -->
<g>
<g class="shW" filter="url(#blurL)" transform="translate(11,11)"><path d="M55.4,57.3 Q62,28 92,28 L992.5,28 Q1000,28 1007.5,28 L1007.5,28 Q1015,28 1015,35.5 L1015,76 Q1015,100 1030.6,118.2 L1043.7,133.3 Q1058,150 1080,150 L1191,150 Q1225,150 1225,184 L1225,300 Q1225,330 1195,330 L1136,330 Q1110,330 1110,356 L1110,696 Q1110,722 1084,722 L986,722 Q960,722 960,748 L960,771 Q960,805 926,805 L565,805 Q545,805 545,785 L545,611 Q545,585 571,585 L668,585 Q690,585 690,607 L690,662 Q690,680 708,680 L883,680 Q905,680 905,658 L905,650 Q905,628 883,628 L766,628 Q750,628 750,612 L750,496 Q750,470 724,470 L512,470 Q500,470 500,458 L500,452 Q500,440 488,440 L420,440 Q400,440 400,460 L400,648 Q400,668 380,668 L225,668 Q207,668 201.8,650.8 L174,558.4 Q170,545 156.2,542.5 L129.8,537.5 Q116,535 112.8,548.6 L94.7,624.4 Q91,640 75.8,644.9 L74.9,645.2 Q60,650 48,640 L48,640 Q36,630 36,614.4 L36,562.8 Q36,540 47,520 L47,520 Q58,500 52.1,477.9 L49.2,467.1 Q42,440 50,413.2 L53.1,403 Q60,380 52.4,357.2 L48.9,346.6 Q40,320 48.2,293.2 L52.9,277.9 Q60,255 53.1,232 L50,221.8 Q42,195 50,168.2 L53.3,157.3 Q60,135 54,112.5 L54,112.5 Q48,90 53.1,67.3 Z"/><ellipse cx="270" cy="865" rx="71" ry="51"/><ellipse cx="450" cy="865" rx="65" ry="47"/><ellipse cx="150" cy="775" rx="22" ry="17"/><ellipse cx="60" cy="890" rx="24" ry="18"/><ellipse cx="720" cy="882" rx="20" ry="16"/><ellipse cx="960" cy="880" rx="18" ry="15"/><ellipse cx="1200" cy="100" rx="16" ry="14"/><ellipse cx="1200" cy="580" rx="17" ry="14"/></g>
<path class="halo" d="M55.4,57.3 Q62,28 92,28 L992.5,28 Q1000,28 1007.5,28 L1007.5,28 Q1015,28 1015,35.5 L1015,76 Q1015,100 1030.6,118.2 L1043.7,133.3 Q1058,150 1080,150 L1191,150 Q1225,150 1225,184 L1225,300 Q1225,330 1195,330 L1136,330 Q1110,330 1110,356 L1110,696 Q1110,722 1084,722 L986,722 Q960,722 960,748 L960,771 Q960,805 926,805 L565,805 Q545,805 545,785 L545,611 Q545,585 571,585 L668,585 Q690,585 690,607 L690,662 Q690,680 708,680 L883,680 Q905,680 905,658 L905,650 Q905,628 883,628 L766,628 Q750,628 750,612 L750,496 Q750,470 724,470 L512,470 Q500,470 500,458 L500,452 Q500,440 488,440 L420,440 Q400,440 400,460 L400,648 Q400,668 380,668 L225,668 Q207,668 201.8,650.8 L174,558.4 Q170,545 156.2,542.5 L129.8,537.5 Q116,535 112.8,548.6 L94.7,624.4 Q91,640 75.8,644.9 L74.9,645.2 Q60,650 48,640 L48,640 Q36,630 36,614.4 L36,562.8 Q36,540 47,520 L47,520 Q58,500 52.1,477.9 L49.2,467.1 Q42,440 50,413.2 L53.1,403 Q60,380 52.4,357.2 L48.9,346.6 Q40,320 48.2,293.2 L52.9,277.9 Q60,255 53.1,232 L50,221.8 Q42,195 50,168.2 L53.3,157.3 Q60,135 54,112.5 L54,112.5 Q48,90 53.1,67.3 Z"/><path class="coast" d="M55.4,57.3 Q62,28 92,28 L992.5,28 Q1000,28 1007.5,28 L1007.5,28 Q1015,28 1015,35.5 L1015,76 Q1015,100 1030.6,118.2 L1043.7,133.3 Q1058,150 1080,150 L1191,150 Q1225,150 1225,184 L1225,300 Q1225,330 1195,330 L1136,330 Q1110,330 1110,356 L1110,696 Q1110,722 1084,722 L986,722 Q960,722 960,748 L960,771 Q960,805 926,805 L565,805 Q545,805 545,785 L545,611 Q545,585 571,585 L668,585 Q690,585 690,607 L690,662 Q690,680 708,680 L883,680 Q905,680 905,658 L905,650 Q905,628 883,628 L766,628 Q750,628 750,612 L750,496 Q750,470 724,470 L512,470 Q500,470 500,458 L500,452 Q500,440 488,440 L420,440 Q400,440 400,460 L400,648 Q400,668 380,668 L225,668 Q207,668 201.8,650.8 L174,558.4 Q170,545 156.2,542.5 L129.8,537.5 Q116,535 112.8,548.6 L94.7,624.4 Q91,640 75.8,644.9 L74.9,645.2 Q60,650 48,640 L48,640 Q36,630 36,614.4 L36,562.8 Q36,540 47,520 L47,520 Q58,500 52.1,477.9 L49.2,467.1 Q42,440 50,413.2 L53.1,403 Q60,380 52.4,357.2 L48.9,346.6 Q40,320 48.2,293.2 L52.9,277.9 Q60,255 53.1,232 L50,221.8 Q42,195 50,168.2 L53.3,157.3 Q60,135 54,112.5 L54,112.5 Q48,90 53.1,67.3 Z"/><path class="land" d="M55.4,57.3 Q62,28 92,28 L992.5,28 Q1000,28 1007.5,28 L1007.5,28 Q1015,28 1015,35.5 L1015,76 Q1015,100 1030.6,118.2 L1043.7,133.3 Q1058,150 1080,150 L1191,150 Q1225,150 1225,184 L1225,300 Q1225,330 1195,330 L1136,330 Q1110,330 1110,356 L1110,696 Q1110,722 1084,722 L986,722 Q960,722 960,748 L960,771 Q960,805 926,805 L565,805 Q545,805 545,785 L545,611 Q545,585 571,585 L668,585 Q690,585 690,607 L690,662 Q690,680 708,680 L883,680 Q905,680 905,658 L905,650 Q905,628 883,628 L766,628 Q750,628 750,612 L750,496 Q750,470 724,470 L512,470 Q500,470 500,458 L500,452 Q500,440 488,440 L420,440 Q400,440 400,460 L400,648 Q400,668 380,668 L225,668 Q207,668 201.8,650.8 L174,558.4 Q170,545 156.2,542.5 L129.8,537.5 Q116,535 112.8,548.6 L94.7,624.4 Q91,640 75.8,644.9 L74.9,645.2 Q60,650 48,640 L48,640 Q36,630 36,614.4 L36,562.8 Q36,540 47,520 L47,520 Q58,500 52.1,477.9 L49.2,467.1 Q42,440 50,413.2 L53.1,403 Q60,380 52.4,357.2 L48.9,346.6 Q40,320 48.2,293.2 L52.9,277.9 Q60,255 53.1,232 L50,221.8 Q42,195 50,168.2 L53.3,157.3 Q60,135 54,112.5 L54,112.5 Q48,90 53.1,67.3 Z"/>
<ellipse cx="270" cy="865" rx="80" ry="59" class="haloL"/><ellipse cx="450" cy="865" rx="74" ry="55" class="haloL"/>
<ellipse cx="270" cy="865" rx="71" ry="51" class="coastL"/><ellipse cx="450" cy="865" rx="65" ry="47" class="coastL"/>
<ellipse cx="270" cy="865" rx="66" ry="46" class="land"/><ellipse cx="450" cy="865" rx="60" ry="42" class="land"/>
</g>
<!-- islets, sandbars, reef rocks -->
<g><ellipse cx="150" cy="775" rx="28" ry="22" class="haloL"/><ellipse cx="150" cy="775" rx="22" ry="17" class="coastL"/><ellipse cx="150" cy="775" rx="18" ry="13" class="land"/><path class="trunk" d="M144.7,778.2 h2.7 v4.5 h-2.7 Z"/><path class="pine" d="M137.9,780 L146,770.1 L154.1,780 Z"/><path class="pine" d="M140.6,774.6 L146,766.5 L151.4,774.6 Z"/><path class="pineHi" d="M142.9,773.7 L146,767.4 L146,773.7 Z"/><path class="trunk" d="M156.7,774.3 h2.6 v4.3 h-2.5 Z"/><path class="pine" d="M150.4,776 L158,766.7 L165.7,776 Z"/><path class="pine" d="M152.9,770.9 L158,763.3 L163.1,770.9 Z"/><path class="pineHi" d="M155,770.1 L158,764.1 L158,770.1 Z"/>
<ellipse cx="60" cy="890" rx="30" ry="23" class="haloL"/><ellipse cx="60" cy="890" rx="24" ry="18" class="coastL"/><ellipse cx="60" cy="890" rx="20" ry="14" class="land"/><path class="trunk" d="M52.7,894.2 h2.7 v4.5 h-2.7 Z"/><path class="pine" d="M45.9,896 L54,886.1 L62.1,896 Z"/><path class="pine" d="M48.6,890.6 L54,882.5 L59.4,890.6 Z"/><path class="pineHi" d="M50.9,889.7 L54,883.4 L54,889.7 Z"/><path class="trunk" d="M66.5,890 h3 v5 h-3 Z"/><path class="pine" d="M59,892 L68,881 L77,892 Z"/><path class="pine" d="M62,886 L68,877 L74,886 Z"/><path class="pineHi" d="M64.5,885 L68,878 L68,885 Z"/>
<ellipse cx="720" cy="882" rx="26" ry="21" class="haloL"/><ellipse cx="720" cy="882" rx="20" ry="16" class="coastL"/><ellipse cx="720" cy="882" rx="16" ry="12" class="land"/><path class="trunk" d="M718.7,884.2 h2.7 v4.5 h-2.7 Z"/><path class="pine" d="M711.9,886 L720,876.1 L728.1,886 Z"/><path class="pine" d="M714.6,880.6 L720,872.5 L725.4,880.6 Z"/><path class="pineHi" d="M716.9,879.7 L720,873.4 L720,879.7 Z"/>
<ellipse cx="960" cy="880" rx="24" ry="20" class="haloL"/><ellipse cx="960" cy="880" rx="18" ry="15" class="coastL"/><ellipse cx="960" cy="880" rx="14" ry="11" class="land"/><path class="trunk" d="M958.7,882.3 h2.6 v4.3 h-2.5 Z"/><path class="pine" d="M952.4,884 L960,874.7 L967.7,884 Z"/><path class="pine" d="M954.9,878.9 L960,871.3 L965.1,878.9 Z"/><path class="pineHi" d="M957,878.1 L960,872.1 L960,878.1 Z"/>
<ellipse cx="1200" cy="100" rx="22" ry="19" class="haloL"/><ellipse cx="1200" cy="100" rx="16" ry="14" class="coastL"/><ellipse cx="1200" cy="100" rx="12" ry="10" class="land"/><path class="trunk" d="M1198.8,102.4 h2.4 v4 h-2.4 Z"/><path class="pine" d="M1192.8,104 L1200,95.2 L1207.2,104 Z"/><path class="pine" d="M1195.2,99.2 L1200,92 L1204.8,99.2 Z"/><path class="pineHi" d="M1197.2,98.4 L1200,92.8 L1200,98.4 Z"/>
<ellipse cx="1200" cy="580" rx="23" ry="19" class="haloL"/><ellipse cx="1200" cy="580" rx="17" ry="14" class="coastL"/><ellipse cx="1200" cy="580" rx="13" ry="10" class="land"/><path class="trunk" d="M1198.8,582.4 h2.4 v4 h-2.4 Z"/><path class="pine" d="M1192.8,584 L1200,575.2 L1207.2,584 Z"/><path class="pine" d="M1195.2,579.2 L1200,572 L1204.8,579.2 Z"/><path class="pineHi" d="M1197.2,578.4 L1200,572.8 L1200,578.4 Z"/>
<rect class="sandbar" x="230" y="695" width="16" height="10" rx="3.5"/><rect class="sandbar" x="293" y="717.5" width="14" height="9" rx="3.2"/><rect class="sandbar" x="236.5" y="787" width="15" height="10" rx="3.5"/><rect class="sandbar" x="311.5" y="795.5" width="13" height="9" rx="3.2"/><rect class="sandbar" x="335" y="900.5" width="14" height="9" rx="3.2"/><rect class="sandbar" x="380.5" y="821" width="15" height="10" rx="3.5"/><rect class="sandbar" x="533" y="877.5" width="14" height="9" rx="3.2"/><rect class="sandbar" x="553.5" y="833.5" width="13" height="9" rx="3.2"/><rect class="sandbar" x="632.5" y="845" width="15" height="10" rx="3.5"/><rect class="sandbar" x="513.5" y="900.5" width="13" height="9" rx="3.2"/><circle class="rock" cx="222" cy="690" r="2.2"/><circle class="rock" cx="236" cy="715" r="2.2"/><circle class="rock" cx="228" cy="752" r="2.2"/><circle class="rock" cx="246" cy="776" r="2.2"/><circle class="rock" cx="232" cy="810" r="2.2"/><circle class="rock" cx="302" cy="700" r="2.2"/><circle class="rock" cx="312" cy="742" r="2.2"/><circle class="rock" cx="306" cy="780" r="2.2"/><circle class="rock" cx="376" cy="842" r="2.2"/><circle class="rock" cx="520" cy="892" r="2.2"/><circle class="rock" cx="548" cy="845" r="2.2"/><circle class="rock" cx="578" cy="848" r="2.2"/><circle class="rock" cx="622" cy="862" r="2.2"/><circle class="rock" cx="645" cy="832" r="2.2"/><circle class="rock" cx="632" cy="822" r="2.2"/><circle class="rock" cx="770" cy="650" r="2.2"/><circle class="rock" cx="790" cy="660" r="2.2"/><circle class="rock" cx="812" cy="648" r="2.2"/><circle class="rock" cx="836" cy="660" r="2.2"/><circle class="rock" cx="858" cy="650" r="2.2"/><circle class="rock" cx="880" cy="658" r="2.2"/><circle class="rock" cx="1150" cy="450" r="2.2"/><circle class="rock" cx="1165" cy="480" r="2.2"/><circle class="rock" cx="1148" cy="512" r="2.2"/><circle class="rock" cx="1168" cy="545" r="2.2"/><circle class="rock" cx="1150" cy="620" r="2.2"/><circle class="rock" cx="1170" cy="652" r="2.2"/><circle class="rock" cx="1152" cy="688" r="2.2"/><circle class="rock" cx="470" cy="722" r="2.2"/><circle class="rock" cx="520" cy="708" r="2.2"/><circle class="rock" cx="530" cy="800" r="2.2"/><rect class="sandbar" x="500" y="762" width="13" height="8" rx="3"/>
</g>
<!-- terrain patches: sand, forests, marsh, rivers, piers, cliffs -->
<g>
<g class="sh" filter="url(#blurS)" transform="translate(6,6)"><path d="M222,270 Q222,262 230,262 L304,262 Q312,262 312,270 L312,350 Q312,358 304,358 L230,358 Q222,358 222,350 Z"/><path d="M562,614 Q562,600 576,600 L662,600 Q676,600 676,614 L676,726 Q676,738 664,738 L574,738 Q562,738 562,726 Z"/><path d="M602,242 Q602,232 612,232 L750,232 Q762,232 762,244 L762,362 Q762,372 752,372 L743,372 Q735,372 735,380 L735,382 Q735,392 725,392 L675,392 Q665,392 665,382 L665,380 Q665,372 657,372 L612,372 Q602,372 602,362 Z"/></g>
<path class="sand" d="M803,26 L905,26 L905,36 Q905,46 895,46 L813,46 Q803,46 803,36 Z"/>
<path class="forest" d="M222,270 Q222,262 230,262 L304,262 Q312,262 312,270 L312,350 Q312,358 304,358 L230,358 Q222,358 222,350 Z"/>
<path class="forest" d="M562,614 Q562,600 576,600 L662,600 Q676,600 676,614 L676,726 Q676,738 664,738 L574,738 Q562,738 562,726 Z"/>
<path class="marsh" d="M602,242 Q602,232 612,232 L750,232 Q762,232 762,244 L762,362 Q762,372 752,372 L743,372 Q735,372 735,380 L735,382 Q735,392 725,392 L675,392 Q665,392 665,382 L665,380 Q665,372 657,372 L612,372 Q602,372 602,362 Z"/>
<path class="riverRim" d="M668,234 V270"/><path class="river" d="M668,234 V270"/>
<path class="riverRim" d="M604,262 H642"/><path class="river" d="M604,262 H642"/>
<path class="riverRim" d="M672,323 Q682,360 700,390"/><path class="river" d="M672,323 Q682,360 700,390"/>
<path class="riverRim" d="M760,332 H698"/><path class="river" d="M760,332 H698"/>
<circle cx="668" cy="296" r="32" class="lakeRim"/><circle cx="668" cy="296" r="28" class="lake"/><path class="shimmer" d="M654,287.6 h14 M665.2,305.8 h12.6"/>
<path class="trail" d="M712,388 V318 Q712,290 727,280 Q742,290 742,318 V368"/>
<path class="reed" d="M609,250 l1,-7 M612,250 l0,-9 M615,250 l-1,-7"/><path class="reed" d="M619,356 l1,-7 M622,356 l0,-9 M625,356 l-1,-7"/><path class="reed" d="M745,250 l1,-7 M748,250 l0,-9 M751,250 l-1,-7"/><path class="reed" d="M749,300 l1,-7 M752,300 l0,-9 M755,300 l-1,-7"/><path class="reed" d="M687,380 l1,-7 M690,380 l0,-9 M693,380 l-1,-7"/><path class="reed" d="M637,380 l1,-7 M640,380 l0,-9 M643,380 l-1,-7"/>
<path class="riverRim" d="M1122,340 H1140 V318 H1213 V222 H1114 Q1102,222 1102,210 Q1102,150 1040,150 H742"/><path class="river" d="M1122,340 H1140 V318 H1213 V222 H1114 Q1102,222 1102,210 Q1102,150 1040,150 H742"/>
<ellipse class="clearing" cx="600" cy="632" rx="24" ry="12"/><path class="trail" d="M568,632 a32,19 0 1 0 64,0 a32,19 0 1 0 -64,0 M600,651 v14"/>
<rect class="pier" x="1106" y="468" width="30" height="8" rx="2"/><rect class="pier" x="1106" y="516" width="26" height="8" rx="2"/><rect class="pier" x="1106" y="564" width="30" height="8" rx="2"/><rect class="pier" x="1106" y="612" width="26" height="8" rx="2"/><rect class="pier" x="1106" y="658" width="30" height="8" rx="2"/><path class="cliff" d="M68,140 Q80.8,116 100,140 Z"/><path class="cliff" d="M54,200 Q70,172 94,200 Z"/><path class="cliff" d="M68,262 Q80.8,238 100,262 Z"/><path class="cliff" d="M54,322 Q70,294 94,322 Z"/><path class="cliff" d="M68,385 Q80.8,361 100,385 Z"/><path class="cliff" d="M54,445 Q70,417 94,445 Z"/><path class="cliff" d="M69,505 Q81,483 99,505 Z"/></g>
<!-- mountains, hills, houses, trees, tufts -->
<g>
<g class="sh" filter="url(#blurS)" transform="translate(7,6)"><path d="M156,120 L198,58 L240,120 Z"/><path d="M156,182 L198,120 L240,182 Z"/><path d="M460,222 L510,127 L560,222 Z"/><path d="M552,222 L600,134 L648,222 Z"/><path d="M156,244 L198,182 L240,244 Z"/><path d="M980,300 L1005,262 L1030,300 Z"/><path d="M923,300 L945,268 L967,300 Z"/><path d="M156,306 L198,244 L240,306 Z"/><path d="M808,330 L835,288 L862,330 Z"/><path d="M957,340 L985,298 L1013,340 Z"/><path d="M843,345 L868,307 L893,345 Z"/><path d="M910,350 L940,304 L970,350 Z"/><path d="M156,368 L198,306 L240,368 Z"/><path d="M827,385 L850,351 L873,385 Z"/><path d="M935,388 L960,352 L985,388 Z"/><path d="M465,390 L485,360 L505,390 Z"/><path d="M423,392 L445,358 L467,392 Z"/><path d="M156,430 L198,370 L240,430 Z"/><path d="M953,468 L975,434 L997,468 Z"/><path d="M810,468 L830,436 L850,468 Z"/><path d="M990,480 L1010,450 L1030,480 Z"/><path d="M201,530 L211,512 L221,530 Z"/><path d="M952,558 L975,522 L998,558 Z"/><path d="M201,560 L212,540 L223,560 Z"/><path d="M816,568 L835,538 L854,568 Z"/><path d="M990,570 L1010,540 L1030,570 Z"/><path d="M57,570 L70,550 L83,570 Z"/><path d="M70,596 L84,574 L98,596 Z"/><path d="M48,612 L64,586 L80,612 Z"/><path d="M236,852 L250,822 L264,852 Z"/><path d="M279,852 L292,826 L305,852 Z"/><path d="M320.8,335 Q340.4,305 360,335 Z"/><path d="M360,335 Q379.6,303 399.2,335 Z"/><path d="M339,335 Q360,295 381,335 Z"/><path d="M403,350 Q421.5,323 440,350 Z"/><path d="M440,350 Q458.5,321.2 477,350 Z"/><path d="M420.2,350 Q440,314 459.8,350 Z"/><path d="M296.4,385 Q313.2,361 330,385 Z"/><path d="M330,385 Q346.8,359.4 363.6,385 Z"/><path d="M312,385 Q330,353 348,385 Z"/><path d="M934.7,652 Q954.8,622 975,652 Z"/><path d="M975,652 Q995.2,620 1015.3,652 Z"/><path d="M953.4,652 Q975,612 996.6,652 Z"/><path d="M968.6,678 Q984.3,654 1000,678 Z"/><path d="M1000,678 Q1015.7,652.4 1031.4,678 Z"/><path d="M983.2,678 Q1000,646 1016.8,678 Z"/></g>
<path class="mtn" d="M156,120 L198,58 L240,120 Z"/><path class="mtnHi" d="M156,120 L198,58 L193,120 Z"/><path class="snow" d="M198,58 L183.7,76.6 L193,72.9 L198,79.1 L203,72.9 L212.3,76.6 Z"/>
<path class="mtn" d="M156,182 L198,120 L240,182 Z"/><path class="mtnHi" d="M156,182 L198,120 L193,182 Z"/><path class="snow" d="M198,120 L183.7,138.6 L193,134.9 L198,141.1 L203,134.9 L212.3,138.6 Z"/>
<path class="mtn" d="M460,222 L510,127 L560,222 Z"/><path class="mtnHi" d="M460,222 L510,127 L504,222 Z"/><path class="snow" d="M510,127 L493,155.5 L504,149.8 L510,159.3 L516,149.8 L527,155.5 Z"/>
<path class="mtn" d="M552,222 L600,134 L648,222 Z"/><path class="mtnHi" d="M552,222 L600,134 L594.2,222 Z"/><path class="snow" d="M600,134 L583.7,160.4 L594.2,155.1 L600,163.9 L605.8,155.1 L616.3,160.4 Z"/>
<path class="mtn" d="M156,244 L198,182 L240,244 Z"/><path class="mtnHi" d="M156,244 L198,182 L193,244 Z"/><path class="snow" d="M198,182 L183.7,200.6 L193,196.9 L198,203.1 L203,196.9 L212.3,200.6 Z"/>
<path class="mtnT" d="M980,300 L1005,262 L1030,300 Z"/><path class="mtnTHi" d="M980,300 L1005,262 L1002,300 Z"/>
<path class="mtnT" d="M923,300 L945,268 L967,300 Z"/><path class="mtnTHi" d="M923,300 L945,268 L942.4,300 Z"/>
<path class="mtn" d="M156,306 L198,244 L240,306 Z"/><path class="mtnHi" d="M156,306 L198,244 L193,306 Z"/><path class="snow" d="M198,244 L183.7,262.6 L193,258.9 L198,265.1 L203,258.9 L212.3,262.6 Z"/>
<path class="mtnT" d="M808,330 L835,288 L862,330 Z"/><path class="mtnTHi" d="M808,330 L835,288 L831.8,330 Z"/>
<path class="mtnT" d="M957,340 L985,298 L1013,340 Z"/><path class="mtnTHi" d="M957,340 L985,298 L981.6,340 Z"/>
<path class="mtnT" d="M843,345 L868,307 L893,345 Z"/><path class="mtnTHi" d="M843,345 L868,307 L865,345 Z"/>
<path class="mtnT" d="M910,350 L940,304 L970,350 Z"/><path class="mtnTHi" d="M910,350 L940,304 L936.4,350 Z"/>
<path class="mtn" d="M156,368 L198,306 L240,368 Z"/><path class="mtnHi" d="M156,368 L198,306 L193,368 Z"/><path class="snow" d="M198,306 L183.7,324.6 L193,320.9 L198,327.1 L203,320.9 L212.3,324.6 Z"/>
<path class="mtnT" d="M827,385 L850,351 L873,385 Z"/><path class="mtnTHi" d="M827,385 L850,351 L847.2,385 Z"/>
<path class="mtnT" d="M935,388 L960,352 L985,388 Z"/><path class="mtnTHi" d="M935,388 L960,352 L957,388 Z"/>
<path class="mtnT" d="M465,390 L485,360 L505,390 Z"/><path class="mtnTHi" d="M465,390 L485,360 L482.6,390 Z"/>
<path class="mtnT" d="M423,392 L445,358 L467,392 Z"/><path class="mtnTHi" d="M423,392 L445,358 L442.4,392 Z"/>
<path class="mtn" d="M156,430 L198,370 L240,430 Z"/><path class="mtnHi" d="M156,430 L198,370 L193,430 Z"/><path class="snow" d="M198,370 L183.7,388 L193,384.4 L198,390.4 L203,384.4 L212.3,388 Z"/>
<path class="mtnT" d="M953,468 L975,434 L997,468 Z"/><path class="mtnTHi" d="M953,468 L975,434 L972.4,468 Z"/>
<path class="mtnT" d="M810,468 L830,436 L850,468 Z"/><path class="mtnTHi" d="M810,468 L830,436 L827.6,468 Z"/>
<path class="mtnT" d="M990,480 L1010,450 L1030,480 Z"/><path class="mtnTHi" d="M990,480 L1010,450 L1007.6,480 Z"/>
<path class="mtnT" d="M201,530 L211,512 L221,530 Z"/><path class="mtnTHi" d="M201,530 L211,512 L209.8,530 Z"/>
<path class="mtnT" d="M952,558 L975,522 L998,558 Z"/><path class="mtnTHi" d="M952,558 L975,522 L972.2,558 Z"/>
<path class="mtnT" d="M201,560 L212,540 L223,560 Z"/><path class="mtnTHi" d="M201,560 L212,540 L210.7,560 Z"/>
<path class="mtnT" d="M816,568 L835,538 L854,568 Z"/><path class="mtnTHi" d="M816,568 L835,538 L832.7,568 Z"/>
<path class="mtnT" d="M990,570 L1010,540 L1030,570 Z"/><path class="mtnTHi" d="M990,570 L1010,540 L1007.6,570 Z"/>
<path class="mtnT" d="M57,570 L70,550 L83,570 Z"/><path class="mtnTHi" d="M57,570 L70,550 L68.4,570 Z"/>
<path class="mtnT" d="M70,596 L84,574 L98,596 Z"/><path class="mtnTHi" d="M70,596 L84,574 L82.3,596 Z"/>
<path class="mtnT" d="M48,612 L64,586 L80,612 Z"/><path class="mtnTHi" d="M48,612 L64,586 L62.1,612 Z"/>
<path class="mtn" d="M236,852 L250,822 L264,852 Z"/><path class="mtnHi" d="M236,852 L250,822 L248.3,852 Z"/>
<path class="mtn" d="M279,852 L292,826 L305,852 Z"/><path class="mtnHi" d="M279,852 L292,826 L290.4,852 Z"/>
<path class="hill" d="M320.8,335 Q340.4,305 360,335 Z"/><path class="hill" d="M360,335 Q379.6,303 399.2,335 Z"/><path class="hill" d="M339,335 Q360,295 381,335 Z"/><path class="hillHi" d="M339,335 Q347.4,305 358.6,317 L353,335 Z"/>
<path class="hill" d="M403,350 Q421.5,323 440,350 Z"/><path class="hill" d="M440,350 Q458.5,321.2 477,350 Z"/><path class="hill" d="M420.2,350 Q440,314 459.8,350 Z"/><path class="hillHi" d="M420.2,350 Q428.1,323 438.7,333.8 L433.4,350 Z"/>
<path class="hill" d="M296.4,385 Q313.2,361 330,385 Z"/><path class="hill" d="M330,385 Q346.8,359.4 363.6,385 Z"/><path class="hill" d="M312,385 Q330,353 348,385 Z"/><path class="hillHi" d="M312,385 Q319.2,361 328.8,370.6 L324,385 Z"/>
<path class="hill" d="M934.7,652 Q954.8,622 975,652 Z"/><path class="hill" d="M975,652 Q995.2,620 1015.3,652 Z"/><path class="hill" d="M953.4,652 Q975,612 996.6,652 Z"/><path class="hillHi" d="M953.4,652 Q962,622 973.6,634 L967.8,652 Z"/>
<path class="hill" d="M968.6,678 Q984.3,654 1000,678 Z"/><path class="hill" d="M1000,678 Q1015.7,652.4 1031.4,678 Z"/><path class="hill" d="M983.2,678 Q1000,646 1016.8,678 Z"/><path class="hillHi" d="M983.2,678 Q989.9,654 998.9,663.6 L994.4,678 Z"/>
<rect class="wall" x="328.5" y="166" width="9" height="6"/><path class="roofR" d="M327,166 L333,161 L339,166 Z"/><rect class="door" x="332" y="169" width="2" height="3"/>
<rect class="wall" x="846.5" y="178" width="9" height="6"/><path class="roofG" d="M845,178 L851,173 L857,178 Z"/><rect class="door" x="850" y="181" width="2" height="3"/>
<rect class="wall" x="847.5" y="227" width="9" height="6"/><path class="roofG" d="M846,227 L852,222 L858,227 Z"/><rect class="door" x="851" y="230" width="2" height="3"/>
<rect class="wall" x="713.5" y="165" width="9" height="6"/><path class="roofB" d="M712,165 L718,160 L724,165 Z"/><rect class="door" x="717" y="168" width="2" height="3"/>
<rect class="wall" x="585.5" y="449" width="9" height="6"/><path class="roofG" d="M584,449 L590,444 L596,449 Z"/><rect class="door" x="589" y="452" width="2" height="3"/>
<rect class="wall" x="544.5" y="450" width="9" height="6"/><path class="roofG" d="M543,450 L549,445 L555,450 Z"/><rect class="door" x="548" y="453" width="2" height="3"/>
<rect class="wall" x="628.5" y="385" width="13" height="8"/><path class="roofG" d="M627,385 L635,380 L643,385 Z"/><rect class="door" x="634" y="390" width="2" height="3"/>
<rect class="wall" x="629.5" y="438" width="9" height="6"/><path class="roofG" d="M628,438 L634,433 L640,438 Z"/><rect class="door" x="633" y="441" width="2" height="3"/>
<rect class="wall" x="709.5" y="433" width="9" height="6"/><path class="roofB" d="M708,433 L714,428 L720,433 Z"/><rect class="door" x="713" y="436" width="2" height="3"/>
<rect class="wall" x="852.5" y="434" width="13" height="8"/><path class="roofB" d="M851,434 L859,429 L867,434 Z"/><rect class="door" x="858" y="439" width="2" height="3"/>
<rect class="wall" x="854.5" y="458" width="9" height="6"/><path class="roofR" d="M853,458 L859,453 L865,458 Z"/><rect class="door" x="858" y="461" width="2" height="3"/>
<rect class="wall" x="298.5" y="500" width="9" height="6"/><path class="roofB" d="M297,500 L303,495 L309,500 Z"/><rect class="door" x="302" y="503" width="2" height="3"/>
<rect class="wall" x="230.5" y="500" width="9" height="6"/><path class="roofR" d="M229,500 L235,495 L241,500 Z"/><rect class="door" x="234" y="503" width="2" height="3"/>
<rect class="wall" x="329.5" y="440" width="9" height="6"/><path class="roofG" d="M328,440 L334,435 L340,440 Z"/><rect class="door" x="333" y="443" width="2" height="3"/>
<rect class="wall" x="330.5" y="461" width="9" height="6"/><path class="roofG" d="M329,461 L335,456 L341,461 Z"/><rect class="door" x="334" y="464" width="2" height="3"/>
<rect class="wall" x="855.5" y="569" width="9" height="6"/><path class="roofG" d="M854,569 L860,564 L866,569 Z"/><rect class="door" x="859" y="572" width="2" height="3"/>
<rect class="wall" x="295.5" y="650" width="9" height="6"/><path class="roofG" d="M294,650 L300,645 L306,650 Z"/><rect class="door" x="299" y="653" width="2" height="3"/>
<rect class="wall" x="231.5" y="650" width="9" height="6"/><path class="roofB" d="M230,650 L236,645 L242,650 Z"/><rect class="door" x="235" y="653" width="2" height="3"/>
<rect class="wall" x="329.5" y="589" width="9" height="6"/><path class="roofR" d="M328,589 L334,584 L340,589 Z"/><rect class="door" x="333" y="592" width="2" height="3"/>
<rect class="wall" x="659.5" y="749" width="9" height="6"/><path class="roofG" d="M658,749 L664,744 L670,749 Z"/><rect class="door" x="663" y="752" width="2" height="3"/>
<rect class="wall" x="266.5" y="905" width="9" height="6"/><path class="roofB" d="M265,905 L271,900 L277,905 Z"/><rect class="door" x="270" y="908" width="2" height="3"/>
<path class="trunk" d="M184.5,56.6 h3.3 v5.5 h-3.3 Z"/><path class="pine" d="M176.3,58.8 L186.2,46.7 L196.1,58.8 Z"/><path class="pine" d="M179.6,52.2 L186.2,42.3 L192.8,52.2 Z"/><path class="pineHi" d="M182.4,51.1 L186.2,43.4 L186.2,51.1 Z"/><path class="trunk" d="M321.3,57.8 h3.3 v5.5 h-3.3 Z"/><path class="pine" d="M313,60 L322.9,47.9 L332.8,60 Z"/><path class="pine" d="M316.3,53.4 L322.9,43.5 L329.5,53.4 Z"/><path class="pineHi" d="M319,52.3 L322.9,44.6 L322.9,52.3 Z"/><path class="trunk" d="M343.7,62.5 h3.3 v5.5 h-3.3 Z"/><path class="pine" d="M335.4,64.7 L345.3,52.6 L355.2,64.7 Z"/><path class="pine" d="M338.7,58.1 L345.3,48.2 L351.9,58.1 Z"/><path class="pineHi" d="M341.5,57 L345.3,49.3 L345.3,57 Z"/><path class="trunk" d="M263.5,63.4 h2.7 v4.5 h-2.7 Z"/><path class="pine" d="M256.7,65.2 L264.8,55.3 L272.9,65.2 Z"/><path class="pine" d="M259.4,59.8 L264.8,51.7 L270.2,59.8 Z"/><path class="pineHi" d="M261.7,58.9 L264.8,52.6 L264.8,58.9 Z"/><path class="trunk" d="M436.8,63.2 h3 v5 h-3 Z"/><path class="pine" d="M429.3,65.2 L438.3,54.2 L447.3,65.2 Z"/><path class="pine" d="M432.3,59.2 L438.3,50.2 L444.3,59.2 Z"/><path class="pineHi" d="M434.8,58.2 L438.3,51.2 L438.3,58.2 Z"/><path class="trunk" d="M319.7,65.3 h3.3 v5.5 h-3.3 Z"/><path class="pine" d="M311.4,67.5 L321.3,55.4 L331.2,67.5 Z"/><path class="pine" d="M314.7,60.9 L321.3,51 L327.9,60.9 Z"/><path class="pineHi" d="M317.5,59.8 L321.3,52.1 L321.3,59.8 Z"/><path class="trunk" d="M374.5,66.6 h3.3 v5.5 h-3.3 Z"/><path class="pine" d="M366.2,68.8 L376.1,56.7 L386,68.8 Z"/><path class="pine" d="M369.5,62.2 L376.1,52.3 L382.7,62.2 Z"/><path class="pineHi" d="M372.3,61.1 L376.1,53.4 L376.1,61.1 Z"/><path class="trunk" d="M405,69.5 h3.3 v5.5 h-3.3 Z"/><path class="pine" d="M396.7,71.7 L406.6,59.6 L416.5,71.7 Z"/><path class="pine" d="M400,65.1 L406.6,55.2 L413.2,65.1 Z"/><path class="pineHi" d="M402.8,64 L406.6,56.3 L406.6,64 Z"/><path class="trunk" d="M384.6,81.8 h3 v5 h-3 Z"/><path class="pine" d="M377.1,83.8 L386.1,72.8 L395.1,83.8 Z"/><path class="pine" d="M380.1,77.8 L386.1,68.8 L392.1,77.8 Z"/><path class="pineHi" d="M382.6,76.8 L386.1,69.8 L386.1,76.8 Z"/><path class="trunk" d="M310.1,82.5 h3.3 v5.5 h-3.3 Z"/><path class="pine" d="M301.8,84.7 L311.7,72.6 L321.6,84.7 Z"/><path class="pine" d="M305.1,78.1 L311.7,68.2 L318.3,78.1 Z"/><path class="pineHi" d="M307.8,77 L311.7,69.3 L311.7,77 Z"/><path class="trunk" d="M334.1,84.8 h3.3 v5.5 h-3.3 Z"/><path class="pine" d="M325.8,87 L335.7,74.9 L345.6,87 Z"/><path class="pine" d="M329.1,80.4 L335.7,70.5 L342.3,80.4 Z"/><path class="pineHi" d="M331.8,79.3 L335.7,71.6 L335.7,79.3 Z"/><path class="trunk" d="M356.6,85.9 h2.4 v4 h-2.4 Z"/><path class="pine" d="M350.6,87.5 L357.8,78.7 L365,87.5 Z"/><path class="pine" d="M353,82.7 L357.8,75.5 L362.6,82.7 Z"/><path class="pineHi" d="M355,81.9 L357.8,76.3 L357.8,81.9 Z"/><path class="trunk" d="M356.9,86.5 h2.4 v4 h-2.4 Z"/><path class="pine" d="M350.9,88.1 L358.1,79.3 L365.3,88.1 Z"/><path class="pine" d="M353.3,83.3 L358.1,76.1 L362.9,83.3 Z"/><path class="pineHi" d="M355.3,82.5 L358.1,76.9 L358.1,82.5 Z"/><path class="trunk" d="M302.2,88.3 h3.3 v5.5 h-3.3 Z"/><path class="pine" d="M293.9,90.5 L303.8,78.4 L313.7,90.5 Z"/><path class="pine" d="M297.2,83.9 L303.8,74 L310.4,83.9 Z"/><path class="pineHi" d="M300,82.8 L303.8,75.1 L303.8,82.8 Z"/><path class="trunk" d="M389.8,91.8 h2.7 v4.5 h-2.7 Z"/><path class="pine" d="M383,93.6 L391.1,83.7 L399.2,93.6 Z"/><path class="pine" d="M385.7,88.2 L391.1,80.1 L396.5,88.2 Z"/><path class="pineHi" d="M388,87.3 L391.1,81 L391.1,87.3 Z"/><path class="trunk" d="M723.7,92.1 h3 v5 h-3 Z"/><path class="pine" d="M716.2,94.1 L725.2,83.1 L734.2,94.1 Z"/><path class="pine" d="M719.2,88.1 L725.2,79.1 L731.2,88.1 Z"/><path class="pineHi" d="M721.7,87.1 L725.2,80.1 L725.2,87.1 Z"/><path class="trunk" d="M335.1,93 h3.3 v5.5 h-3.3 Z"/><path class="pine" d="M326.8,95.2 L336.7,83.1 L346.6,95.2 Z"/><path class="pine" d="M330.1,88.6 L336.7,78.7 L343.3,88.6 Z"/><path class="pineHi" d="M332.8,87.5 L336.7,79.8 L336.7,87.5 Z"/><path class="trunk" d="M725.9,96.7 h2.7 v4.5 h-2.7 Z"/><path class="pine" d="M719.1,98.5 L727.2,88.6 L735.3,98.5 Z"/><path class="pine" d="M721.8,93.1 L727.2,85 L732.6,93.1 Z"/><path class="pineHi" d="M724.1,92.2 L727.2,85.9 L727.2,92.2 Z"/><path class="trunk" d="M312.9,105.6 h3.3 v5.5 h-3.3 Z"/><path class="pine" d="M304.6,107.8 L314.5,95.7 L324.4,107.8 Z"/><path class="pine" d="M307.9,101.2 L314.5,91.3 L321.1,101.2 Z"/><path class="pineHi" d="M310.7,100.1 L314.5,92.4 L314.5,100.1 Z"/><path class="trunk" d="M367.3,107.5 h3.6 v6 h-3.6 Z"/><path class="pine" d="M358.3,109.9 L369.1,96.7 L379.9,109.9 Z"/><path class="pine" d="M361.9,102.7 L369.1,91.9 L376.3,102.7 Z"/><path class="pineHi" d="M364.9,101.5 L369.1,93.1 L369.1,101.5 Z"/><path class="trunk" d="M742.6,108.2 h3 v5 h-3 Z"/><path class="pine" d="M735.1,110.2 L744.1,99.2 L753.1,110.2 Z"/><path class="pine" d="M738.1,104.2 L744.1,95.2 L750.1,104.2 Z"/><path class="pineHi" d="M740.6,103.2 L744.1,96.2 L744.1,103.2 Z"/><path class="trunk" d="M340,108.9 h2.7 v4.5 h-2.7 Z"/><path class="pine" d="M333.3,110.7 L341.4,100.8 L349.5,110.7 Z"/><path class="pine" d="M336,105.3 L341.4,97.2 L346.8,105.3 Z"/><path class="pineHi" d="M338.3,104.4 L341.4,98.1 L341.4,104.4 Z"/><path class="trunk" d="M993.3,110.5 h2.7 v4.5 h-2.7 Z"/><path class="pine" d="M986.5,112.3 L994.6,102.4 L1002.7,112.3 Z"/><path class="pine" d="M989.2,106.9 L994.6,98.8 L1000,106.9 Z"/><path class="pineHi" d="M991.5,106 L994.6,99.7 L994.6,106 Z"/><path class="trunk" d="M295.6,110.9 h3 v5 h-3 Z"/><path class="pine" d="M288.1,112.9 L297.1,101.9 L306.1,112.9 Z"/><path class="pine" d="M291.1,106.9 L297.1,97.9 L303.1,106.9 Z"/><path class="pineHi" d="M293.6,105.9 L297.1,98.9 L297.1,105.9 Z"/><path class="trunk" d="M350.6,111.4 h3 v5 h-3 Z"/><path class="pine" d="M343.1,113.4 L352.1,102.4 L361.1,113.4 Z"/><path class="pine" d="M346.1,107.4 L352.1,98.4 L358.1,107.4 Z"/><path class="pineHi" d="M348.6,106.4 L352.1,99.4 L352.1,106.4 Z"/><path class="trunk" d="M404.5,111.9 h2.7 v4.5 h-2.7 Z"/><path class="pine" d="M397.8,113.7 L405.9,103.8 L414,113.7 Z"/><path class="pine" d="M400.5,108.3 L405.9,100.2 L411.3,108.3 Z"/><path class="pineHi" d="M402.8,107.4 L405.9,101.1 L405.9,107.4 Z"/><path class="trunk" d="M734.4,112.9 h2.7 v4.5 h-2.7 Z"/><path class="pine" d="M727.6,114.7 L735.7,104.8 L743.8,114.7 Z"/><path class="pine" d="M730.3,109.3 L735.7,101.2 L741.1,109.3 Z"/><path class="pineHi" d="M732.6,108.4 L735.7,102.1 L735.7,108.4 Z"/><path class="trunk" d="M383.4,114.1 h2.4 v4 h-2.4 Z"/><path class="pine" d="M377.4,115.7 L384.6,106.9 L391.8,115.7 Z"/><path class="pine" d="M379.8,110.9 L384.6,103.7 L389.4,110.9 Z"/><path class="pineHi" d="M381.8,110.1 L384.6,104.5 L384.6,110.1 Z"/><path class="trunk" d="M814.7,114.3 h3 v5 h-3 Z"/><path class="pine" d="M807.2,116.3 L816.2,105.3 L825.2,116.3 Z"/><path class="pine" d="M810.2,110.3 L816.2,101.3 L822.2,110.3 Z"/><path class="pineHi" d="M812.7,109.3 L816.2,102.3 L816.2,109.3 Z"/><path class="trunk" d="M714.9,116.3 h2.7 v4.5 h-2.7 Z"/><path class="pine" d="M708.1,118.1 L716.2,108.2 L724.3,118.1 Z"/><path class="pine" d="M710.8,112.7 L716.2,104.6 L721.6,112.7 Z"/><path class="pineHi" d="M713.1,111.8 L716.2,105.5 L716.2,111.8 Z"/><path class="trunk" d="M942.4,117.1 h3.3 v5.5 h-3.3 Z"/><path class="pine" d="M934.1,119.3 L944,107.2 L953.9,119.3 Z"/><path class="pine" d="M937.4,112.7 L944,102.8 L950.6,112.7 Z"/><path class="pineHi" d="M940.2,111.6 L944,103.9 L944,111.6 Z"/><path class="trunk" d="M901.5,117.7 h3 v5 h-3 Z"/><path class="pine" d="M894,119.7 L903,108.7 L912,119.7 Z"/><path class="pine" d="M897,113.7 L903,104.7 L909,113.7 Z"/><path class="pineHi" d="M899.5,112.7 L903,105.7 L903,112.7 Z"/><path class="trunk" d="M938.3,117.8 h3 v5 h-3 Z"/><path class="pine" d="M930.8,119.8 L939.8,108.8 L948.8,119.8 Z"/><path class="pine" d="M933.8,113.8 L939.8,104.8 L945.8,113.8 Z"/><path class="pineHi" d="M936.3,112.8 L939.8,105.8 L939.8,112.8 Z"/><path class="trunk" d="M316.8,118.2 h3.3 v5.5 h-3.3 Z"/><path class="pine" d="M308.5,120.4 L318.4,108.3 L328.3,120.4 Z"/><path class="pine" d="M311.8,113.8 L318.4,103.9 L325,113.8 Z"/><path class="pineHi" d="M314.5,112.7 L318.4,105 L318.4,112.7 Z"/><path class="trunk" d="M977.3,119.9 h2.4 v4 h-2.4 Z"/><path class="pine" d="M971.3,121.5 L978.5,112.7 L985.7,121.5 Z"/><path class="pine" d="M973.7,116.7 L978.5,109.5 L983.3,116.7 Z"/><path class="pineHi" d="M975.7,115.9 L978.5,110.3 L978.5,115.9 Z"/><path class="trunk" d="M149.3,119.5 h3.3 v5.5 h-3.3 Z"/><path class="pine" d="M141,121.7 L150.9,109.6 L160.8,121.7 Z"/><path class="pine" d="M144.3,115.1 L150.9,105.2 L157.5,115.1 Z"/><path class="pineHi" d="M147.1,114 L150.9,106.3 L150.9,114 Z"/><path class="trunk" d="M738.8,123 h3 v5 h-3 Z"/><path class="pine" d="M731.3,125 L740.3,114 L749.3,125 Z"/><path class="pine" d="M734.3,119 L740.3,110 L746.3,119 Z"/><path class="pineHi" d="M736.8,118 L740.3,111 L740.3,118 Z"/><path class="trunk" d="M370,130.7 h2.7 v4.5 h-2.7 Z"/><path class="pine" d="M363.3,132.5 L371.4,122.6 L379.5,132.5 Z"/><path class="pine" d="M366,127.1 L371.4,119 L376.8,127.1 Z"/><path class="pineHi" d="M368.3,126.2 L371.4,119.9 L371.4,126.2 Z"/><path class="trunk" d="M701.1,132.8 h3 v5 h-3 Z"/><path class="pine" d="M693.6,134.8 L702.6,123.8 L711.6,134.8 Z"/><path class="pine" d="M696.6,128.8 L702.6,119.8 L708.6,128.8 Z"/><path class="pineHi" d="M699.1,127.8 L702.6,120.8 L702.6,127.8 Z"/><path class="trunk" d="M730.6,134.3 h2.7 v4.5 h-2.7 Z"/><path class="pine" d="M723.8,136.1 L731.9,126.2 L740,136.1 Z"/><path class="pine" d="M726.5,130.7 L731.9,122.6 L737.3,130.7 Z"/><path class="pineHi" d="M728.8,129.8 L731.9,123.5 L731.9,129.8 Z"/><path class="trunk" d="M339,135.4 h3.3 v5.5 h-3.3 Z"/><path class="pine" d="M330.7,137.6 L340.6,125.5 L350.5,137.6 Z"/><path class="pine" d="M334,131 L340.6,121.1 L347.2,131 Z"/><path class="pineHi" d="M336.8,129.9 L340.6,122.2 L340.6,129.9 Z"/><path class="trunk" d="M697.5,148.9 h3 v5 h-3 Z"/><path class="pine" d="M690,150.9 L699,139.9 L708,150.9 Z"/><path class="pine" d="M693,144.9 L699,135.9 L705,144.9 Z"/><path class="pineHi" d="M695.5,143.9 L699,136.9 L699,143.9 Z"/><path class="trunk" d="M749.2,154.7 h3.6 v6 h-3.6 Z"/><path class="pine" d="M740.2,157.1 L751,143.9 L761.8,157.1 Z"/><path class="pine" d="M743.8,149.9 L751,139.1 L758.2,149.9 Z"/><path class="pineHi" d="M746.8,148.7 L751,140.3 L751,148.7 Z"/><path class="trunk" d="M437.1,169.9 h3.3 v5.5 h-3.3 Z"/><path class="pine" d="M428.8,172.1 L438.7,160 L448.6,172.1 Z"/><path class="pine" d="M432.1,165.5 L438.7,155.6 L445.3,165.5 Z"/><path class="pineHi" d="M434.9,164.4 L438.7,156.7 L438.7,164.4 Z"/><path class="trunk" d="M1133.5,187.7 h2.4 v4 h-2.4 Z"/><path class="pine" d="M1127.5,189.3 L1134.7,180.5 L1141.9,189.3 Z"/><path class="pine" d="M1129.9,184.5 L1134.7,177.3 L1139.5,184.5 Z"/><path class="pineHi" d="M1131.9,183.7 L1134.7,178.1 L1134.7,183.7 Z"/><path class="trunk" d="M1193.6,188.8 h3 v5 h-3 Z"/><path class="pine" d="M1186.1,190.8 L1195.1,179.8 L1204.1,190.8 Z"/><path class="pine" d="M1189.1,184.8 L1195.1,175.8 L1201.1,184.8 Z"/><path class="pineHi" d="M1191.6,183.8 L1195.1,176.8 L1195.1,183.8 Z"/><path class="trunk" d="M1115.2,190.4 h2.7 v4.5 h-2.7 Z"/><path class="pine" d="M1108.4,192.2 L1116.5,182.3 L1124.6,192.2 Z"/><path class="pine" d="M1111.1,186.8 L1116.5,178.7 L1121.9,186.8 Z"/><path class="pineHi" d="M1113.4,185.9 L1116.5,179.6 L1116.5,185.9 Z"/><path class="trunk" d="M920.1,226.7 h2.7 v4.5 h-2.7 Z"/><path class="pine" d="M913.3,228.5 L921.4,218.6 L929.5,228.5 Z"/><path class="pine" d="M916,223.1 L921.4,215 L926.8,223.1 Z"/><path class="pineHi" d="M918.3,222.2 L921.4,215.9 L921.4,222.2 Z"/><path class="trunk" d="M431.9,237.3 h2.7 v4.5 h-2.7 Z"/><path class="pine" d="M425.1,239.1 L433.2,229.2 L441.3,239.1 Z"/><path class="pine" d="M427.8,233.7 L433.2,225.6 L438.6,233.7 Z"/><path class="pineHi" d="M430.1,232.8 L433.2,226.5 L433.2,232.8 Z"/><path class="trunk" d="M471.9,239.5 h3.3 v5.5 h-3.3 Z"/><path class="pine" d="M463.6,241.7 L473.5,229.6 L483.4,241.7 Z"/><path class="pine" d="M466.9,235.1 L473.5,225.2 L480.1,235.1 Z"/><path class="pineHi" d="M469.7,234 L473.5,226.3 L473.5,234 Z"/><path class="trunk" d="M882,241.5 h3.3 v5.5 h-3.3 Z"/><path class="pine" d="M873.7,243.7 L883.6,231.6 L893.5,243.7 Z"/><path class="pine" d="M877,237.1 L883.6,227.2 L890.2,237.1 Z"/><path class="pineHi" d="M879.8,236 L883.6,228.3 L883.6,236 Z"/><path class="trunk" d="M525.4,277.8 h3 v5 h-3 Z"/><path class="pine" d="M517.9,279.8 L526.9,268.8 L535.9,279.8 Z"/><path class="pine" d="M520.9,273.8 L526.9,264.8 L532.9,273.8 Z"/><path class="pineHi" d="M523.4,272.8 L526.9,265.8 L526.9,272.8 Z"/><path class="trunk" d="M862.2,279.2 h3 v5 h-3 Z"/><path class="pine" d="M854.7,281.2 L863.7,270.2 L872.7,281.2 Z"/><path class="pine" d="M857.7,275.2 L863.7,266.2 L869.7,275.2 Z"/><path class="pineHi" d="M860.2,274.2 L863.7,267.2 L863.7,274.2 Z"/><path class="trunk" d="M95.8,281.4 h3.6 v6 h-3.6 Z"/><path class="pine" d="M86.8,283.8 L97.6,270.6 L108.4,283.8 Z"/><path class="pine" d="M90.4,276.6 L97.6,265.8 L104.8,276.6 Z"/><path class="pineHi" d="M93.4,275.4 L97.6,267 L97.6,275.4 Z"/><path class="trunk" d="M493.6,282.3 h3 v5 h-3 Z"/><path class="pine" d="M486.1,284.3 L495.1,273.3 L504.1,284.3 Z"/><path class="pine" d="M489.1,278.3 L495.1,269.3 L501.1,278.3 Z"/><path class="pineHi" d="M491.6,277.3 L495.1,270.3 L495.1,277.3 Z"/><path class="trunk" d="M970.2,282.6 h3.3 v5.5 h-3.3 Z"/><path class="pine" d="M961.9,284.8 L971.8,272.7 L981.7,284.8 Z"/><path class="pine" d="M965.2,278.2 L971.8,268.3 L978.4,278.2 Z"/><path class="pineHi" d="M968,277.1 L971.8,269.4 L971.8,277.1 Z"/><path class="trunk" d="M442.6,282.6 h3.3 v5.5 h-3.3 Z"/><path class="pine" d="M434.3,284.8 L444.2,272.7 L454.1,284.8 Z"/><path class="pine" d="M437.6,278.2 L444.2,268.3 L450.8,278.2 Z"/><path class="pineHi" d="M440.4,277.1 L444.2,269.4 L444.2,277.1 Z"/><path class="trunk" d="M440,286.7 h3 v5 h-3 Z"/><path class="pine" d="M432.5,288.7 L441.5,277.7 L450.5,288.7 Z"/><path class="pine" d="M435.5,282.7 L441.5,273.7 L447.5,282.7 Z"/><path class="pineHi" d="M438,281.7 L441.5,274.7 L441.5,281.7 Z"/><path class="trunk" d="M75.3,288.2 h3 v5 h-3 Z"/><path class="pine" d="M67.8,290.2 L76.8,279.2 L85.8,290.2 Z"/><path class="pine" d="M70.8,284.2 L76.8,275.2 L82.8,284.2 Z"/><path class="pineHi" d="M73.3,283.2 L76.8,276.2 L76.8,283.2 Z"/><path class="trunk" d="M496.4,294.3 h3.6 v6 h-3.6 Z"/><path class="pine" d="M487.4,296.7 L498.2,283.5 L509,296.7 Z"/><path class="pine" d="M491,289.5 L498.2,278.7 L505.4,289.5 Z"/><path class="pineHi" d="M494,288.3 L498.2,279.9 L498.2,288.3 Z"/><path class="trunk" d="M416.7,295.8 h3.3 v5.5 h-3.3 Z"/><path class="pine" d="M408.4,298 L418.3,285.9 L428.2,298 Z"/><path class="pine" d="M411.7,291.4 L418.3,281.5 L424.9,291.4 Z"/><path class="pineHi" d="M414.5,290.3 L418.3,282.6 L418.3,290.3 Z"/><path class="trunk" d="M346.8,308.1 h2.7 v4.5 h-2.7 Z"/><path class="pine" d="M340.1,309.9 L348.2,300 L356.3,309.9 Z"/><path class="pine" d="M342.8,304.5 L348.2,296.4 L353.6,304.5 Z"/><path class="pineHi" d="M345.1,303.6 L348.2,297.3 L348.2,303.6 Z"/><path class="trunk" d="M372.9,307.7 h3.6 v6 h-3.6 Z"/><path class="pine" d="M363.9,310.1 L374.7,296.9 L385.5,310.1 Z"/><path class="pine" d="M367.5,302.9 L374.7,292.1 L381.9,302.9 Z"/><path class="pineHi" d="M370.5,301.7 L374.7,293.3 L374.7,301.7 Z"/><path class="trunk" d="M401.8,310.9 h3 v5 h-3 Z"/><path class="pine" d="M394.3,312.9 L403.3,301.9 L412.3,312.9 Z"/><path class="pine" d="M397.3,306.9 L403.3,297.9 L409.3,306.9 Z"/><path class="pineHi" d="M399.8,305.9 L403.3,298.9 L403.3,305.9 Z"/><path class="trunk" d="M482,317.3 h3 v5 h-3 Z"/><path class="pine" d="M474.5,319.3 L483.5,308.3 L492.5,319.3 Z"/><path class="pine" d="M477.5,313.3 L483.5,304.3 L489.5,313.3 Z"/><path class="pineHi" d="M480,312.3 L483.5,305.3 L483.5,312.3 Z"/><path class="trunk" d="M491.4,332.1 h2.7 v4.5 h-2.7 Z"/><path class="pine" d="M484.6,333.9 L492.7,324 L500.8,333.9 Z"/><path class="pine" d="M487.3,328.5 L492.7,320.4 L498.1,328.5 Z"/><path class="pineHi" d="M489.6,327.6 L492.7,321.3 L492.7,327.6 Z"/><path class="trunk" d="M811.9,345.9 h2.4 v4 h-2.4 Z"/><path class="pine" d="M805.9,347.5 L813.1,338.7 L820.3,347.5 Z"/><path class="pine" d="M808.3,342.7 L813.1,335.5 L817.9,342.7 Z"/><path class="pineHi" d="M810.3,341.9 L813.1,336.3 L813.1,341.9 Z"/><path class="trunk" d="M968.1,347.2 h2.7 v4.5 h-2.7 Z"/><path class="pine" d="M961.3,349 L969.4,339.1 L977.5,349 Z"/><path class="pine" d="M964,343.6 L969.4,335.5 L974.8,343.6 Z"/><path class="pineHi" d="M966.3,342.7 L969.4,336.4 L969.4,342.7 Z"/><path class="trunk" d="M394.2,350.9 h3.3 v5.5 h-3.3 Z"/><path class="pine" d="M385.9,353.1 L395.8,341 L405.7,353.1 Z"/><path class="pine" d="M389.2,346.5 L395.8,336.6 L402.4,346.5 Z"/><path class="pineHi" d="M392,345.4 L395.8,337.7 L395.8,345.4 Z"/><path class="trunk" d="M359.7,361.6 h2.7 v4.5 h-2.7 Z"/><path class="pine" d="M352.9,363.4 L361,353.5 L369.1,363.4 Z"/><path class="pine" d="M355.6,358 L361,349.9 L366.4,358 Z"/><path class="pineHi" d="M357.9,357.1 L361,350.8 L361,357.1 Z"/><path class="trunk" d="M337.2,361.7 h3 v5 h-3 Z"/><path class="pine" d="M329.7,363.7 L338.7,352.7 L347.7,363.7 Z"/><path class="pine" d="M332.7,357.7 L338.7,348.7 L344.7,357.7 Z"/><path class="pineHi" d="M335.2,356.7 L338.7,349.7 L338.7,356.7 Z"/><path class="trunk" d="M390.3,361.8 h3.6 v6 h-3.6 Z"/><path class="pine" d="M381.3,364.2 L392.1,351 L402.9,364.2 Z"/><path class="pine" d="M384.9,357 L392.1,346.2 L399.3,357 Z"/><path class="pineHi" d="M387.9,355.8 L392.1,347.4 L392.1,355.8 Z"/><path class="trunk" d="M919.9,362.9 h2.7 v4.5 h-2.7 Z"/><path class="pine" d="M913.1,364.7 L921.2,354.8 L929.3,364.7 Z"/><path class="pine" d="M915.8,359.3 L921.2,351.2 L926.6,359.3 Z"/><path class="pineHi" d="M918.1,358.4 L921.2,352.1 L921.2,358.4 Z"/><path class="trunk" d="M1011.2,365.5 h2.4 v4 h-2.4 Z"/><path class="pine" d="M1005.2,367.1 L1012.4,358.3 L1019.6,367.1 Z"/><path class="pine" d="M1007.6,362.3 L1012.4,355.1 L1017.2,362.3 Z"/><path class="pineHi" d="M1009.6,361.5 L1012.4,355.9 L1012.4,361.5 Z"/><path class="trunk" d="M374.8,382.4 h2.4 v4 h-2.4 Z"/><path class="pine" d="M368.8,384 L376,375.2 L383.2,384 Z"/><path class="pine" d="M371.2,379.2 L376,372 L380.8,379.2 Z"/><path class="pineHi" d="M373.2,378.4 L376,372.8 L376,378.4 Z"/><path class="trunk" d="M79,395.7 h3 v5 h-3 Z"/><path class="pine" d="M71.5,397.7 L80.5,386.7 L89.5,397.7 Z"/><path class="pine" d="M74.5,391.7 L80.5,382.7 L86.5,391.7 Z"/><path class="pineHi" d="M77,390.7 L80.5,383.7 L80.5,390.7 Z"/><path class="trunk" d="M687.9,438.5 h3 v5 h-3 Z"/><path class="pine" d="M680.4,440.5 L689.4,429.5 L698.4,440.5 Z"/><path class="pine" d="M683.4,434.5 L689.4,425.5 L695.4,434.5 Z"/><path class="pineHi" d="M685.9,433.5 L689.4,426.5 L689.4,433.5 Z"/><path class="trunk" d="M653.1,441.8 h3 v5 h-3 Z"/><path class="pine" d="M645.6,443.8 L654.6,432.8 L663.6,443.8 Z"/><path class="pine" d="M648.6,437.8 L654.6,428.8 L660.6,437.8 Z"/><path class="pineHi" d="M651.1,436.8 L654.6,429.8 L654.6,436.8 Z"/><path class="trunk" d="M99.8,450.1 h2.4 v4 h-2.4 Z"/><path class="pine" d="M93.8,451.7 L101,442.9 L108.2,451.7 Z"/><path class="pine" d="M96.2,446.9 L101,439.7 L105.8,446.9 Z"/><path class="pineHi" d="M98.2,446.1 L101,440.5 L101,446.1 Z"/><path class="trunk" d="M824,499.5 h3 v5 h-3 Z"/><path class="pine" d="M816.5,501.5 L825.5,490.5 L834.5,501.5 Z"/><path class="pine" d="M819.5,495.5 L825.5,486.5 L831.5,495.5 Z"/><path class="pineHi" d="M822,494.5 L825.5,487.5 L825.5,494.5 Z"/><path class="trunk" d="M223.5,516 h2.7 v4.5 h-2.7 Z"/><path class="pine" d="M216.7,517.8 L224.8,507.9 L232.9,517.8 Z"/><path class="pine" d="M219.4,512.4 L224.8,504.3 L230.2,512.4 Z"/><path class="pineHi" d="M221.7,511.5 L224.8,505.2 L224.8,511.5 Z"/><path class="trunk" d="M968.3,518.7 h2.7 v4.5 h-2.7 Z"/><path class="pine" d="M961.5,520.5 L969.6,510.6 L977.7,520.5 Z"/><path class="pine" d="M964.2,515.1 L969.6,507 L975,515.1 Z"/><path class="pineHi" d="M966.5,514.2 L969.6,507.9 L969.6,514.2 Z"/><path class="trunk" d="M329.8,527.6 h3.3 v5.5 h-3.3 Z"/><path class="pine" d="M321.5,529.8 L331.4,517.7 L341.3,529.8 Z"/><path class="pine" d="M324.8,523.2 L331.4,513.3 L338,523.2 Z"/><path class="pineHi" d="M327.5,522.1 L331.4,514.4 L331.4,522.1 Z"/><path class="trunk" d="M230.4,539.4 h2.7 v4.5 h-2.7 Z"/><path class="pine" d="M223.6,541.2 L231.7,531.3 L239.8,541.2 Z"/><path class="pine" d="M226.3,535.8 L231.7,527.7 L237.1,535.8 Z"/><path class="pineHi" d="M228.6,534.9 L231.7,528.6 L231.7,534.9 Z"/><path class="trunk" d="M344.9,540.6 h3.3 v5.5 h-3.3 Z"/><path class="pine" d="M336.6,542.8 L346.5,530.7 L356.4,542.8 Z"/><path class="pine" d="M339.9,536.2 L346.5,526.3 L353.1,536.2 Z"/><path class="pineHi" d="M342.7,535.1 L346.5,527.4 L346.5,535.1 Z"/><path class="trunk" d="M1007.7,542.7 h3.3 v5.5 h-3.3 Z"/><path class="pine" d="M999.4,544.9 L1009.3,532.8 L1019.2,544.9 Z"/><path class="pine" d="M1002.7,538.3 L1009.3,528.4 L1015.9,538.3 Z"/><path class="pineHi" d="M1005.5,537.2 L1009.3,529.5 L1009.3,537.2 Z"/><path class="trunk" d="M307,547 h2.7 v4.5 h-2.7 Z"/><path class="pine" d="M300.3,548.8 L308.4,538.9 L316.5,548.8 Z"/><path class="pine" d="M303,543.4 L308.4,535.3 L313.8,543.4 Z"/><path class="pineHi" d="M305.3,542.5 L308.4,536.2 L308.4,542.5 Z"/><path class="trunk" d="M944.9,554.5 h3.3 v5.5 h-3.3 Z"/><path class="pine" d="M936.6,556.7 L946.5,544.6 L956.4,556.7 Z"/><path class="pine" d="M939.9,550.1 L946.5,540.2 L953.1,550.1 Z"/><path class="pineHi" d="M942.7,549 L946.5,541.3 L946.5,549 Z"/><path class="trunk" d="M230,561 h2.7 v4.5 h-2.7 Z"/><path class="pine" d="M223.2,562.8 L231.3,552.9 L239.4,562.8 Z"/><path class="pine" d="M225.9,557.4 L231.3,549.3 L236.7,557.4 Z"/><path class="pineHi" d="M228.2,556.5 L231.3,550.2 L231.3,556.5 Z"/><path class="trunk" d="M323.2,566 h2.7 v4.5 h-2.7 Z"/><path class="pine" d="M316.4,567.8 L324.5,557.9 L332.6,567.8 Z"/><path class="pine" d="M319.1,562.4 L324.5,554.3 L329.9,562.4 Z"/><path class="pineHi" d="M321.4,561.5 L324.5,555.2 L324.5,561.5 Z"/><path class="trunk" d="M294.8,570 h3 v5 h-3 Z"/><path class="pine" d="M287.3,572 L296.3,561 L305.3,572 Z"/><path class="pine" d="M290.3,566 L296.3,557 L302.3,566 Z"/><path class="pineHi" d="M292.8,565 L296.3,558 L296.3,565 Z"/><path class="trunk" d="M980.4,618.2 h3 v5 h-3 Z"/><path class="pine" d="M972.9,620.2 L981.9,609.2 L990.9,620.2 Z"/><path class="pine" d="M975.9,614.2 L981.9,605.2 L987.9,614.2 Z"/><path class="pineHi" d="M978.4,613.2 L981.9,606.2 L981.9,613.2 Z"/><path class="trunk" d="M998.1,622.1 h3 v5 h-3 Z"/><path class="pine" d="M990.6,624.1 L999.6,613.1 L1008.6,624.1 Z"/><path class="pine" d="M993.6,618.1 L999.6,609.1 L1005.6,618.1 Z"/><path class="pineHi" d="M996.1,617.1 L999.6,610.1 L999.6,617.1 Z"/><path class="trunk" d="M943.2,623.9 h2.7 v4.5 h-2.7 Z"/><path class="pine" d="M936.4,625.7 L944.5,615.8 L952.6,625.7 Z"/><path class="pine" d="M939.1,620.3 L944.5,612.2 L949.9,620.3 Z"/><path class="pineHi" d="M941.4,619.4 L944.5,613.1 L944.5,619.4 Z"/><path class="trunk" d="M343.2,632.7 h3 v5 h-3 Z"/><path class="pine" d="M335.7,634.7 L344.7,623.7 L353.7,634.7 Z"/><path class="pine" d="M338.7,628.7 L344.7,619.7 L350.7,628.7 Z"/><path class="pineHi" d="M341.2,627.7 L344.7,620.7 L344.7,627.7 Z"/><path class="trunk" d="M641.7,647.5 h2.7 v4.5 h-2.7 Z"/><path class="pine" d="M634.9,649.3 L643,639.4 L651.1,649.3 Z"/><path class="pine" d="M637.6,643.9 L643,635.8 L648.4,643.9 Z"/><path class="pineHi" d="M639.9,643 L643,636.7 L643,643 Z"/><path class="trunk" d="M1024.1,653.8 h3.3 v5.5 h-3.3 Z"/><path class="pine" d="M1015.9,656 L1025.8,643.9 L1035.7,656 Z"/><path class="pine" d="M1019.2,649.4 L1025.8,639.5 L1032.4,649.4 Z"/><path class="pineHi" d="M1022,648.3 L1025.8,640.6 L1025.8,648.3 Z"/><path class="trunk" d="M659.9,659 h2.7 v4.5 h-2.7 Z"/><path class="pine" d="M653.2,660.8 L661.3,650.9 L669.4,660.8 Z"/><path class="pine" d="M655.9,655.4 L661.3,647.3 L666.7,655.4 Z"/><path class="pineHi" d="M658.2,654.5 L661.3,648.2 L661.3,654.5 Z"/><path class="trunk" d="M665.4,665.8 h3 v5 h-3 Z"/><path class="pine" d="M657.9,667.8 L666.9,656.8 L675.9,667.8 Z"/><path class="pine" d="M660.9,661.8 L666.9,652.8 L672.9,661.8 Z"/><path class="pineHi" d="M663.4,660.8 L666.9,653.8 L666.9,660.8 Z"/><path class="trunk" d="M660.6,690.6 h2.7 v4.5 h-2.7 Z"/><path class="pine" d="M653.8,692.4 L661.9,682.5 L670,692.4 Z"/><path class="pine" d="M656.5,687 L661.9,678.9 L667.3,687 Z"/><path class="pineHi" d="M658.8,686.1 L661.9,679.8 L661.9,686.1 Z"/><path class="trunk" d="M656.7,706.4 h2.7 v4.5 h-2.7 Z"/><path class="pine" d="M649.9,708.2 L658,698.3 L666.1,708.2 Z"/><path class="pine" d="M652.6,702.8 L658,694.7 L663.4,702.8 Z"/><path class="pineHi" d="M654.9,701.9 L658,695.6 L658,701.9 Z"/><path class="trunk" d="M693.7,707.5 h3 v5 h-3 Z"/><path class="pine" d="M686.2,709.5 L695.2,698.5 L704.2,709.5 Z"/><path class="pine" d="M689.2,703.5 L695.2,694.5 L701.2,703.5 Z"/><path class="pineHi" d="M691.7,702.5 L695.2,695.5 L695.2,702.5 Z"/><path class="trunk" d="M857.7,709.9 h3.6 v6 h-3.6 Z"/><path class="pine" d="M848.7,712.3 L859.5,699.1 L870.3,712.3 Z"/><path class="pine" d="M852.3,705.1 L859.5,694.3 L866.7,705.1 Z"/><path class="pineHi" d="M855.3,703.9 L859.5,695.5 L859.5,703.9 Z"/><path class="trunk" d="M664.2,713.5 h3 v5 h-3 Z"/><path class="pine" d="M656.7,715.5 L665.7,704.5 L674.7,715.5 Z"/><path class="pine" d="M659.7,709.5 L665.7,700.5 L671.7,709.5 Z"/><path class="pineHi" d="M662.2,708.5 L665.7,701.5 L665.7,708.5 Z"/><path class="trunk" d="M724.1,717 h3.3 v5.5 h-3.3 Z"/><path class="pine" d="M715.8,719.2 L725.7,707.1 L735.6,719.2 Z"/><path class="pine" d="M719.1,712.6 L725.7,702.7 L732.3,712.6 Z"/><path class="pineHi" d="M721.9,711.5 L725.7,703.8 L725.7,711.5 Z"/><path class="trunk" d="M809.3,717.9 h3.6 v6 h-3.6 Z"/><path class="pine" d="M800.3,720.3 L811.1,707.1 L821.9,720.3 Z"/><path class="pine" d="M803.9,713.1 L811.1,702.3 L818.3,713.1 Z"/><path class="pineHi" d="M806.9,711.9 L811.1,703.5 L811.1,711.9 Z"/><path class="trunk" d="M840.1,718.1 h3.6 v6 h-3.6 Z"/><path class="pine" d="M831.1,720.5 L841.9,707.3 L852.7,720.5 Z"/><path class="pine" d="M834.7,713.3 L841.9,702.5 L849.1,713.3 Z"/><path class="pineHi" d="M837.7,712.1 L841.9,703.7 L841.9,712.1 Z"/><path class="trunk" d="M700.9,733.7 h2.7 v4.5 h-2.7 Z"/><path class="pine" d="M694.1,735.5 L702.2,725.6 L710.3,735.5 Z"/><path class="pine" d="M696.8,730.1 L702.2,722 L707.6,730.1 Z"/><path class="pineHi" d="M699.1,729.2 L702.2,722.9 L702.2,729.2 Z"/><path class="trunk" d="M783.9,735.3 h3.3 v5.5 h-3.3 Z"/><path class="pine" d="M775.6,737.5 L785.5,725.4 L795.4,737.5 Z"/><path class="pine" d="M778.9,730.9 L785.5,721 L792.1,730.9 Z"/><path class="pineHi" d="M781.7,729.8 L785.5,722.1 L785.5,729.8 Z"/><path class="trunk" d="M842.2,737.5 h2.7 v4.5 h-2.7 Z"/><path class="pine" d="M835.4,739.3 L843.5,729.4 L851.6,739.3 Z"/><path class="pine" d="M838.1,733.9 L843.5,725.8 L848.9,733.9 Z"/><path class="pineHi" d="M840.4,733 L843.5,726.7 L843.5,733 Z"/><path class="trunk" d="M662.5,740.9 h3 v5 h-3 Z"/><path class="pine" d="M655,742.9 L664,731.9 L673,742.9 Z"/><path class="pine" d="M658,736.9 L664,727.9 L670,736.9 Z"/><path class="pineHi" d="M660.5,735.9 L664,728.9 L664,735.9 Z"/><path class="trunk" d="M640,743.5 h3.3 v5.5 h-3.3 Z"/><path class="pine" d="M631.7,745.7 L641.6,733.6 L651.5,745.7 Z"/><path class="pine" d="M635,739.1 L641.6,729.2 L648.2,739.1 Z"/><path class="pineHi" d="M637.8,738 L641.6,730.3 L641.6,738 Z"/><path class="trunk" d="M854.8,745.6 h3 v5 h-3 Z"/><path class="pine" d="M847.3,747.6 L856.3,736.6 L865.3,747.6 Z"/><path class="pine" d="M850.3,741.6 L856.3,732.6 L862.3,741.6 Z"/><path class="pineHi" d="M852.8,740.6 L856.3,733.6 L856.3,740.6 Z"/><path class="trunk" d="M804.7,746 h2.7 v4.5 h-2.7 Z"/><path class="pine" d="M797.9,747.8 L806,737.9 L814.1,747.8 Z"/><path class="pine" d="M800.6,742.4 L806,734.3 L811.4,742.4 Z"/><path class="pineHi" d="M802.9,741.5 L806,735.2 L806,741.5 Z"/>
<path class="tuft" d="M492.2,89.3 l2,-5 M496.2,89.3 l0,-6 M500.2,89.3 l-2,-5"/><path class="tuft" d="M417.6,133.9 l2,-5 M421.6,133.9 l0,-6 M425.6,133.9 l-2,-5"/><path class="tuft" d="M646.2,120.1 l2,-5 M650.2,120.1 l0,-6 M654.2,120.1 l-2,-5"/><path class="tuft" d="M990.3,168.9 l2,-5 M994.3,168.9 l0,-6 M998.3,168.9 l-2,-5"/><path class="tuft" d="M965.1,236.6 l2,-5 M969.1,236.6 l0,-6 M973.1,236.6 l-2,-5"/><path class="tuft" d="M959.6,264.6 l2,-5 M963.6,264.6 l0,-6 M967.6,264.6 l-2,-5"/><path class="tuft" d="M561.9,327.1 l2,-5 M565.9,327.1 l0,-6 M569.9,327.1 l-2,-5"/><path class="tuft" d="M871,308 l2,-5 M875,308 l0,-6 M879,308 l-2,-5"/><path class="tuft" d="M1024.9,306.1 l2,-5 M1028.9,306.1 l0,-6 M1032.9,306.1 l-2,-5"/><path class="tuft" d="M300.7,362.6 l2,-5 M304.7,362.6 l0,-6 M308.7,362.6 l-2,-5"/><path class="tuft" d="M532.4,359.8 l2,-5 M536.4,359.8 l0,-6 M540.4,359.8 l-2,-5"/><path class="tuft" d="M587.8,365.9 l2,-5 M591.8,365.9 l0,-6 M595.8,365.9 l-2,-5"/><path class="tuft" d="M375.4,419.3 l2,-5 M379.4,419.3 l0,-6 M383.4,419.3 l-2,-5"/><path class="tuft" d="M1079.5,468.3 l2,-5 M1083.5,468.3 l0,-6 M1087.5,468.3 l-2,-5"/><path class="tuft" d="M141.9,487.4 l2,-5 M145.9,487.4 l0,-6 M149.9,487.4 l-2,-5"/><path class="tuft" d="M288.7,550.2 l2,-5 M292.7,550.2 l0,-6 M296.7,550.2 l-2,-5"/><path class="tuft" d="M1082.2,627.6 l2,-5 M1086.2,627.6 l0,-6 M1090.2,627.6 l-2,-5"/><path class="tuft" d="M931.8,771.8 l2,-5 M935.8,771.8 l0,-6 M939.8,771.8 l-2,-5"/>
</g>
<!-- node shadows + Route 18 bridge (drawn under the locked overlay) -->
<g class="sh" filter="url(#blurS)" transform="translate(5,5)"><rect x="74" y="43" width="92" height="54" rx="14"/><rect x="80" y="177" width="80" height="46" rx="13"/><rect x="226" y="175" width="88" height="50" rx="14"/><rect x="515" y="177" width="80" height="46" rx="13"/><rect x="742" y="175" width="88" height="50" rx="14"/><rect x="1010" y="177" width="80" height="46" rx="13"/><rect x="610" y="47" width="80" height="46" rx="13"/><rect x="920" y="47" width="80" height="46" rx="13"/><rect x="1125" y="247" width="80" height="46" rx="13"/><rect x="315" y="232" width="80" height="46" rx="13"/><rect x="230" y="287" width="80" height="46" rx="13"/><rect x="526" y="385" width="88" height="50" rx="14"/><rect x="738" y="382" width="96" height="56" rx="14"/><rect x="1006" y="385" width="88" height="50" rx="14"/><rect x="226" y="435" width="88" height="50" rx="14"/><rect x="860" y="482" width="80" height="46" rx="13"/><rect x="742" y="565" width="88" height="50" rx="14"/><rect x="226" y="585" width="88" height="50" rx="14"/><rect x="560" y="667" width="80" height="46" rx="13"/><rect x="556" y="755" width="88" height="50" rx="14"/><rect x="226" y="840" width="88" height="50" rx="14"/><rect x="410" y="842" width="80" height="46" rx="13"/></g>
<path class="bridge" stroke-linejoin="round" d="M420,684 L420,780 L560,780"/>
<!-- routes / caves / sea routes / badges -->
<g>
  <path class="routeW" d="M270,485 L270,585"/><path class="routeO" d="M270,485 L270,585"/><path class="routeHi" d="M270,485 L270,585"/>
  <path class="routeW" d="M270,223 L270,435"/><path class="routeO" d="M270,223 L270,435"/><path class="routeHi" d="M270,223 L270,435"/>
  <path class="routeW" d="M314,200 L515,200"/><path class="routeO" d="M314,200 L515,200"/><path class="routeHi" d="M314,200 L515,200"/>
  <path class="routeW" d="M595,200 L742,200"/><path class="routeO" d="M595,200 L742,200"/><path class="routeHi" d="M595,200 L742,200"/>
  <path class="routeW" d="M786,225 L786,382"/><path class="routeO" d="M786,225 L786,382"/><path class="routeHi" d="M786,225 L786,382"/>
  <path class="routeW" d="M786,438 L786,565"/><path class="routeO" d="M786,438 L786,565"/><path class="routeHi" d="M786,438 L786,565"/>
  <path class="routeW" d="M614,410 L738,410"/><path class="routeO" d="M614,410 L738,410"/><path class="routeHi" d="M614,410 L738,410"/>
  <path class="routeW" d="M834,410 L1006,410"/><path class="routeO" d="M834,410 L1006,410"/><path class="routeHi" d="M834,410 L1006,410"/>
  <path class="routeW" d="M830,200 L1010,200"/><path class="routeO" d="M830,200 L1010,200"/><path class="routeHi" d="M830,200 L1010,200"/>
  <path class="routeW" d="M1050,223 L1050,385"/><path class="routeO" d="M1050,223 L1050,385"/><path class="routeHi" d="M1050,223 L1050,385"/>
  <path class="routeW" d="M1050,270 L1125,270"/><path class="routeO" d="M1050,270 L1125,270"/><path class="routeHi" d="M1050,270 L1125,270"/>
  <path class="routeW" d="M830,590 L1050,590"/><path class="routeO" d="M830,590 L1050,590"/><path class="routeHi" d="M830,590 L1050,590"/>
  <path class="routeW" d="M1050,435 L1050,700"/><path class="routeO" d="M1050,435 L1050,700"/><path class="routeHi" d="M1050,435 L1050,700"/>
  <path class="routeW" d="M1050,700 L900,700"/><path class="routeO" d="M1050,700 L900,700"/><path class="routeHi" d="M1050,700 L900,700"/>
  <path class="routeW" d="M900,700 L900,780"/><path class="routeO" d="M900,700 L900,780"/><path class="routeHi" d="M900,700 L900,780"/>
  <path class="routeW" d="M900,780 L644,780"/><path class="routeO" d="M900,780 L644,780"/><path class="routeHi" d="M900,780 L644,780"/>
  <path class="routeW" d="M526,410 L420,410"/><path class="routeO" d="M526,410 L420,410"/><path class="routeHi" d="M526,410 L420,410"/>
  <path class="routeW" d="M420,410 L420,780"/><path class="deck" d="M420,436 L420,684"/><path class="routeO" d="M420,410 L420,780"/><path class="routeHi" d="M420,410 L420,780"/>
  <path class="routeW" d="M420,780 L556,780"/><path class="routeO" d="M420,780 L556,780"/><path class="routeHi" d="M420,780 L556,780"/>
  <path class="routeW" d="M600,713 L600,755"/><path class="routeO" d="M600,713 L600,755"/><path class="routeHi" d="M600,713 L600,755"/>
  <path class="routeW" d="M226,460 L120,460"/><path class="routeO" d="M226,460 L120,460"/><path class="routeHi" d="M226,460 L120,460"/>
  <path class="routeW" d="M120,460 L120,223"/><path class="routeO" d="M120,460 L120,223"/><path class="routeHi" d="M120,460 L120,223"/>
  <path class="routeW" d="M120,177 L120,97"/><path class="routeO" d="M120,177 L120,97"/><path class="routeHi" d="M120,177 L120,97"/>
  <path class="routeW" d="M786,175 L786,70"/><path class="routeO" d="M786,175 L786,70"/><path class="routeHi" d="M786,175 L786,70"/>
  <path class="routeW" d="M786,70 L920,70"/><path class="routeO" d="M786,70 L920,70"/><path class="routeHi" d="M786,70 L920,70"/>
</g>
<path class="caveW" d="M786,70 L690,70"/><path class="cave" d="M786,70 L690,70"/>
<path class="caveW" d="M395,255 L900,255 L900,482"/><path class="cave" d="M395,255 L900,255 L900,482"/>
<g>
  <path class="seaW" d="M600,805 L600,865 L490,865"/><path class="sea" d="M600,805 L600,865 L490,865"/>
  <path class="seaW" d="M410,865 L314,865"/><path class="sea" d="M410,865 L314,865"/>
  <path class="seaW" d="M270,635 L270,840"/><path class="sea" d="M270,635 L270,840"/>
</g>
<g>
  <circle class="badge" cx="270" cy="535" r="11"/><text class="badgetxt" x="270" y="536">1</text>
  <circle class="badge" cx="270" cy="384" r="11"/><text class="badgetxt" x="270" y="385">2</text>
  <circle class="badge" cx="415" cy="200" r="11"/><text class="badgetxt" x="415" y="201">3</text>
  <circle class="badge" cx="668" cy="200" r="11"/><text class="badgetxt" x="668" y="201">4</text>
  <circle class="badge" cx="786" cy="300" r="11"/><text class="badgetxt" x="786" y="301">5</text>
  <circle class="badge" cx="786" cy="500" r="11"/><text class="badgetxt" x="786" y="501">6</text>
  <circle class="badge" cx="676" cy="410" r="11"/><text class="badgetxt" x="676" y="411">7</text>
  <circle class="badge" cx="950" cy="410" r="11"/><text class="badgetxt" x="950" y="411">8</text>
  <circle class="badge" cx="920" cy="200" r="11"/><text class="badgetxt" x="920" y="201">9</text>
  <circle class="badge" cx="1050" cy="335" r="10"/><text class="badgetxt" x="1050" y="336">10</text>
  <circle class="badge" cx="940" cy="590" r="10"/><text class="badgetxt" x="940" y="591">11</text>
  <circle class="badge" cx="1050" cy="510" r="10"/><text class="badgetxt" x="1050" y="511">12</text>
  <circle class="badge" cx="975" cy="700" r="10"/><text class="badgetxt" x="975" y="701">13</text>
  <circle class="badge" cx="900" cy="740" r="10"/><text class="badgetxt" x="900" y="741">14</text>
  <circle class="badge" cx="772" cy="780" r="10"/><text class="badgetxt" x="772" y="781">15</text>
  <circle class="badge" cx="473" cy="410" r="10"/><text class="badgetxt" x="473" y="411">16</text>
  <circle class="badge" cx="420" cy="600" r="10"/><text class="badgetxt" x="420" y="601">17</text>
  <circle class="badge" cx="488" cy="780" r="10"/><text class="badgetxt" x="488" y="781">18</text>
  <circle class="badge" cx="600" cy="835" r="10"/><text class="badgetxt" x="600" y="836">19</text>
  <circle class="badge" cx="362" cy="865" r="10"/><text class="badgetxt" x="362" y="866">20</text>
  <circle class="badge" cx="270" cy="740" r="10"/><text class="badgetxt" x="270" y="741">21</text>
  <circle class="badge" cx="173" cy="460" r="10"/><text class="badgetxt" x="173" y="461">22</text>
  <circle class="badge" cx="120" cy="340" r="10"/><text class="badgetxt" x="120" y="341">23</text>
  <circle class="badge" cx="786" cy="125" r="10"/><text class="badgetxt" x="786" y="126">24</text>
  <circle class="badge" cx="853" cy="70" r="10"/><text class="badgetxt" x="853" y="71">25</text>
</g>
<!-- nodes -->
<g>
  <rect class="special" x="74" y="43" width="92" height="54" rx="14"/>
  <text class="nodetxt" x="120" y="63"><tspan x="120" dy="0">Indigo</tspan><tspan x="120" dy="15">Plateau</tspan></text>
  <rect class="landmark" x="80" y="177" width="80" height="46" rx="13"/>
  <text class="nodetxt" x="120" y="193"><tspan x="120" dy="0">Victory</tspan><tspan x="120" dy="15">Road</tspan></text>
  <rect class="city" x="226" y="175" width="88" height="50" rx="14"/>
  <text class="nodetxt" x="270" y="193"><tspan x="270" dy="0">Pewter</tspan><tspan x="270" dy="15">City</tspan></text>
  <rect class="landmark" x="515" y="177" width="80" height="46" rx="13"/>
  <text class="nodetxt" x="555" y="193"><tspan x="555" dy="0">Mt.</tspan><tspan x="555" dy="15">Moon</tspan></text>
  <rect class="city" x="742" y="175" width="88" height="50" rx="14"/>
  <text class="nodetxt" x="786" y="193"><tspan x="786" dy="0">Cerulean</tspan><tspan x="786" dy="15">City</tspan></text>
  <rect class="landmark" x="1010" y="177" width="80" height="46" rx="13"/>
  <text class="nodetxt" x="1050" y="193"><tspan x="1050" dy="0">Rock</tspan><tspan x="1050" dy="15">Tunnel</tspan></text>
  <rect class="landmark" x="610" y="47" width="80" height="46" rx="13"/>
  <text class="nodetxt" x="650" y="63"><tspan x="650" dy="0">Cerulean</tspan><tspan x="650" dy="15">Cave</tspan></text>
  <rect class="landmark" x="920" y="47" width="80" height="46" rx="13"/>
  <text class="nodetxt" x="960" y="63"><tspan x="960" dy="0">Bill's</tspan><tspan x="960" dy="15">House</tspan></text>
  <rect class="landmark" x="1125" y="247" width="80" height="46" rx="13"/>
  <text class="nodetxt" x="1165" y="263"><tspan x="1165" dy="0">Power</tspan><tspan x="1165" dy="15">Plant</tspan></text>
  <rect class="landmark" x="315" y="232" width="80" height="46" rx="13"/>
  <text class="nodetxt" x="355" y="248"><tspan x="355" dy="0">Diglett's</tspan><tspan x="355" dy="15">Cave</tspan></text>
  <rect class="landmark" x="230" y="287" width="80" height="46" rx="13"/>
  <text class="nodetxt" x="270" y="303"><tspan x="270" dy="0">Viridian</tspan><tspan x="270" dy="15">Forest</tspan></text>
  <rect class="city" x="526" y="385" width="88" height="50" rx="14"/>
  <text class="nodetxt" x="570" y="403"><tspan x="570" dy="0">Celadon</tspan><tspan x="570" dy="15">City</tspan></text>
  <rect class="city" x="738" y="382" width="96" height="56" rx="14"/>
  <text class="nodetxt" x="786" y="403"><tspan x="786" dy="0">Saffron</tspan><tspan x="786" dy="15">City</tspan></text>
  <rect class="town" x="1006" y="385" width="88" height="50" rx="14"/>
  <text class="nodetxt" x="1050" y="403"><tspan x="1050" dy="0">Lavender</tspan><tspan x="1050" dy="15">Town</tspan></text>
  <rect class="city" x="226" y="435" width="88" height="50" rx="14"/>
  <text class="nodetxt" x="270" y="453"><tspan x="270" dy="0">Viridian</tspan><tspan x="270" dy="15">City</tspan></text>
  <rect class="landmark" x="860" y="482" width="80" height="46" rx="13"/>
  <text class="nodetxt" x="900" y="498"><tspan x="900" dy="0">Diglett's</tspan><tspan x="900" dy="15">Cave</tspan></text>
  <rect class="city" x="742" y="565" width="88" height="50" rx="14"/>
  <text class="nodetxt" x="786" y="583"><tspan x="786" dy="0">Vermilion</tspan><tspan x="786" dy="15">City</tspan></text>
  <rect class="town" x="226" y="585" width="88" height="50" rx="14"/>
  <text class="nodetxt" x="270" y="603"><tspan x="270" dy="0">Pallet</tspan><tspan x="270" dy="15">Town</tspan></text>
  <rect class="landmark" x="560" y="667" width="80" height="46" rx="13"/>
  <text class="nodetxt" x="600" y="683"><tspan x="600" dy="0">Safari</tspan><tspan x="600" dy="15">Zone</tspan></text>
  <rect class="city" x="556" y="755" width="88" height="50" rx="14"/>
  <text class="nodetxt" x="600" y="773"><tspan x="600" dy="0">Fuchsia</tspan><tspan x="600" dy="15">City</tspan></text>
  <rect class="city" x="226" y="840" width="88" height="50" rx="14"/>
  <text class="nodetxt" x="270" y="858"><tspan x="270" dy="0">Cinnabar</tspan><tspan x="270" dy="15">Island</tspan></text>
  <rect class="landmark" x="410" y="842" width="80" height="46" rx="13"/>
  <text class="nodetxt" x="450" y="858"><tspan x="450" dy="0">Seafoam</tspan><tspan x="450" dy="15">Islands</tspan></text>
</g>
<g>
  <circle cx="1262" cy="58" r="19" fill="#3fbccf" stroke="#fff" stroke-width="3"/>
  <path d="M1262,45 L1268,60 L1262,55 L1256,60 Z" fill="#fff"/>
  <text x="1262" y="43" text-anchor="middle" font-size="10.5" font-weight="700" fill="#fff">N</text>
</g>
<g>
  <rect x="1105" y="822" width="176" height="90" rx="14" fill="#1a5a5e" stroke="#fff" stroke-width="3"/>
  <text x="1119" y="842" font-size="13" font-weight="700" fill="#fff">KEY</text>
  <rect x="1119" y="851" width="14" height="14" rx="4" class="city"/><text x="1139" y="862" font-size="10.5" fill="#eafcff">Gym city</text>
  <rect x="1119" y="869" width="14" height="14" rx="4" class="town"/><text x="1139" y="880" font-size="10.5" fill="#eafcff">Town</text>
  <rect x="1205" y="851" width="14" height="14" rx="4" class="landmark"/><text x="1225" y="862" font-size="10.5" fill="#eafcff">Landmark</text>
  <rect x="1205" y="869" width="14" height="14" rx="4" class="special"/><text x="1225" y="880" font-size="10.5" fill="#eafcff">Champion</text>
  <line x1="1119" y1="897" x2="1135" y2="897" stroke="#ff9838" stroke-width="4" stroke-linecap="round"/><text x="1141" y="901" font-size="10" fill="#eafcff">Route</text>
  <line x1="1175" y1="897" x2="1191" y2="897" stroke="#4fc3e0" stroke-width="3" stroke-linecap="round" stroke-dasharray="1 4"/><text x="1197" y="901" font-size="10" fill="#eafcff">Sea</text>
  <line x1="1225" y1="897" x2="1241" y2="897" stroke="#8a6a4a" stroke-width="3" stroke-linecap="round" stroke-dasharray="1 4"/><text x="1247" y="901" font-size="10" fill="#eafcff">Cave</text>
</g>
<!-- clouds -->
<g><g class="cloudSh"><circle cx="76" cy="723" r="9"/><circle cx="88" cy="717" r="12"/><circle cx="102" cy="722" r="9"/><rect x="70" y="721" width="40" height="11" rx="5"/></g><g class="cloud"><circle cx="76" cy="718" r="9"/><circle cx="88" cy="712" r="12"/><circle cx="102" cy="717" r="9"/><rect x="70" y="716" width="40" height="11" rx="5"/></g>
<g class="cloudSh"><circle cx="349.4" cy="912.5" r="8.1"/><circle cx="360.2" cy="907.1" r="10.8"/><circle cx="372.8" cy="911.6" r="8.1"/><rect x="344" y="910.7" width="36" height="9.9" rx="4.5"/></g><g class="cloud"><circle cx="349.4" cy="908" r="8.1"/><circle cx="360.2" cy="902.6" r="10.8"/><circle cx="372.8" cy="907.1" r="8.1"/><rect x="344" y="906.2" width="36" height="9.9" rx="4.5"/></g>
<g class="cloudSh"><circle cx="578.8" cy="549" r="7.2"/><circle cx="588.4" cy="544.2" r="9.6"/><circle cx="599.6" cy="548.2" r="7.2"/><rect x="574" y="547.4" width="32" height="8.8" rx="4"/></g><g class="cloud"><circle cx="578.8" cy="545" r="7.2"/><circle cx="588.4" cy="540.2" r="9.6"/><circle cx="599.6" cy="544.2" r="7.2"/><rect x="574" y="543.4" width="32" height="8.8" rx="4"/></g>
<g class="cloudSh"><circle cx="997.4" cy="882.5" r="8.1"/><circle cx="1008.2" cy="877.1" r="10.8"/><circle cx="1020.8" cy="881.6" r="8.1"/><rect x="992" y="880.7" width="36" height="9.9" rx="4.5"/></g><g class="cloud"><circle cx="997.4" cy="878" r="8.1"/><circle cx="1008.2" cy="872.6" r="10.8"/><circle cx="1020.8" cy="877.1" r="8.1"/><rect x="992" y="876.2" width="36" height="9.9" rx="4.5"/></g>
<g class="cloudSh"><circle cx="1108.8" cy="64" r="7.2"/><circle cx="1118.4" cy="59.2" r="9.6"/><circle cx="1129.6" cy="63.2" r="7.2"/><rect x="1104" y="62.4" width="32" height="8.8" rx="4"/></g><g class="cloud"><circle cx="1108.8" cy="60" r="7.2"/><circle cx="1118.4" cy="55.2" r="9.6"/><circle cx="1129.6" cy="59.2" r="7.2"/><rect x="1104" y="58.4" width="32" height="8.8" rx="4"/></g>
<g class="cloudSh"><circle cx="1238.8" cy="564" r="7.2"/><circle cx="1248.4" cy="559.2" r="9.6"/><circle cx="1259.6" cy="563.2" r="7.2"/><rect x="1234" y="562.4" width="32" height="8.8" rx="4"/></g><g class="cloud"><circle cx="1238.8" cy="560" r="7.2"/><circle cx="1248.4" cy="555.2" r="9.6"/><circle cx="1259.6" cy="559.2" r="7.2"/><rect x="1234" y="558.4" width="32" height="8.8" rx="4"/></g>
<g class="cloudSh"><circle cx="1018.8" cy="769" r="7.2"/><circle cx="1028.4" cy="764.2" r="9.6"/><circle cx="1039.6" cy="768.2" r="7.2"/><rect x="1014" y="767.4" width="32" height="8.8" rx="4"/></g><g class="cloud"><circle cx="1018.8" cy="765" r="7.2"/><circle cx="1028.4" cy="760.2" r="9.6"/><circle cx="1039.6" cy="764.2" r="7.2"/><rect x="1014" y="763.4" width="32" height="8.8" rx="4"/></g>
<g class="cloudSh"><circle cx="848.8" cy="904" r="7.2"/><circle cx="858.4" cy="899.2" r="9.6"/><circle cx="869.6" cy="903.2" r="7.2"/><rect x="844" y="902.4" width="32" height="8.8" rx="4"/></g><g class="cloud"><circle cx="848.8" cy="900" r="7.2"/><circle cx="858.4" cy="895.2" r="9.6"/><circle cx="869.6" cy="899.2" r="7.2"/><rect x="844" y="898.4" width="32" height="8.8" rx="4"/></g>
</g>
</svg>
